<?xml version="1.0" encoding="UTF-8"?>
<svg version="1.1" xmlns="http://www.w3.org/2000/svg" width="2256" height="1589">
<path d="M0 0 C-1.61724151 4.08207345 -4.54384801 6.80398063 -7.625 9.8125 C-8.12128906 10.30814453 -8.61757812 10.80378906 -9.12890625 11.31445312 C-11.94172151 14.09506058 -14.83276291 16.74521096 -17.828125 19.328125 C-22.45340935 23.34057299 -26.79478378 27.61093489 -31.125 31.9375 C-31.89714844 32.69740234 -32.66929687 33.45730469 -33.46484375 34.24023438 C-43.12216813 43.80366841 -43.12216813 43.80366841 -47.875 56.25 C-49.86043723 65.63456806 -53.49161539 74.26661371 -57.21557617 83.07739258 C-57.87491268 84.69341343 -58.44807174 86.34421522 -59 88 C-61.751348 87.64268208 -62.78917569 87.24411236 -64.6328125 85.109375 C-65.37144531 83.94148438 -65.37144531 83.94148438 -66.125 82.75 C-66.62257813 81.98171875 -67.12015625 81.2134375 -67.6328125 80.421875 C-70.45078012 75.43004665 -71.25589387 71.76995581 -71.1875 66 C-71.18105469 64.80375 -71.17460938 63.6075 -71.16796875 62.375 C-71.02217299 59.44552238 -70.58773876 56.8593957 -70 54 C-69.93540958 52.23022239 -69.91388935 50.45829848 -69.9375 48.6875 C-69.95103516 47.36298828 -69.95103516 47.36298828 -69.96484375 46.01171875 C-69.97644531 45.34785156 -69.98804688 44.68398438 -70 44 C-73.01434391 42.91792783 -75.11553127 42.61240065 -78.09472656 43.91796875 C-84.78806526 48.09728124 -87.84270655 52.89805328 -91.3125 59.875 C-91.81072266 60.83019531 -92.30894531 61.78539062 -92.82226562 62.76953125 C-94.24040026 65.50089227 -95.62399967 68.24722717 -97 71 C-97.39590332 71.77335693 -97.79180664 72.54671387 -98.19970703 73.34350586 C-103.32935812 83.40408344 -104.63063499 92.9743277 -101.5625 104 C-99.33266427 110.72990278 -96.26730472 117.04890579 -93.08618164 123.37695312 C-90.98718843 127.60585256 -89.45212005 131.22591882 -89 136 C-88.17346924 136.09007324 -87.34693848 136.18014648 -86.49536133 136.27294922 C-82.29856041 137.14590257 -78.89937194 138.74858037 -75.07421875 140.6328125 C-73.54010199 141.36409671 -72.00558393 142.09453953 -70.47070312 142.82421875 C-68.07677539 143.97175374 -65.68652613 145.12547761 -63.30297852 146.29443359 C-60.98552851 147.42670697 -58.65641647 148.5313042 -56.32421875 149.6328125 C-55.62391037 149.9848172 -54.92360199 150.3368219 -54.20207214 150.69949341 C-48.78360639 153.2243616 -44.80503705 153.05852944 -39 152 C-36.81337605 151.80254566 -34.62594867 151.61358208 -32.4375 151.4375 C-31.40496094 151.35371094 -30.37242187 151.26992187 -29.30859375 151.18359375 C-28.54675781 151.12300781 -27.78492188 151.06242188 -27 151 C-27.54140625 149.64068359 -27.54140625 149.64068359 -28.09375 148.25390625 C-33.77777778 133.33333333 -33.77777778 133.33333333 -31 125 C-28.06050369 126.40007612 -25.40903478 128.03104632 -22.6875 129.8125 C-16.8112058 133.34170293 -10.64400877 135.44494171 -4.10546875 137.36914062 C-1.94270639 138.01716682 0.19832264 138.71879978 2.34375 139.421875 C12.62306683 142.616738 21.96137314 143.46633048 32.72827148 142.90356445 C39.38897392 142.63239508 43.27789714 143.51786623 49 147 C46.51044666 152.74512309 44.76565883 155.89592251 39 159 C36.05301337 159.76729642 33.07198053 160.17646873 30.0625 160.625 C17.82770604 162.81173496 7.35310195 168.84385387 0 179 C-1.16812775 181.86278443 -1.16812775 181.86278443 -1.875 184.8125 C-4.89726075 194.50292335 -10.44748336 200.07612624 -18.66796875 205.78515625 C-21 207 -21 207 -25 207 C-25.3888938 194.84346773 -24.71726896 184.40348497 -20 173 C-24.22544871 170.88727565 -29.93802351 172.31976033 -34.2734375 173.75 C-39.61106514 176.06232966 -44.66184046 178.95693888 -49.71484375 181.828125 C-52 183 -52 183 -54 183 C-54.27070312 183.85722656 -54.54140625 184.71445313 -54.8203125 185.59765625 C-55.99521525 188.98620027 -57.39112488 192.17374358 -58.875 195.4375 C-66.13414381 212.20616676 -69.72596633 230.63926043 -63.18359375 248.296875 C-62.79300781 249.18890625 -62.40242188 250.0809375 -62 251 C-61.66097656 251.78890625 -61.32195313 252.5778125 -60.97265625 253.390625 C-58.39871658 258.33698594 -54.95810161 260.88976982 -49.9140625 263.16796875 C-44.6558381 264.66931164 -39.41052881 264.38162037 -34 264 C-34.10699219 263.40832031 -34.21398438 262.81664062 -34.32421875 262.20703125 C-35.31560892 255.67238422 -35.31560892 255.67238422 -33.5625 251.9375 C-33.046875 251.298125 -32.53125 250.65875 -32 250 C-27.71666678 251.42262331 -24.98947761 253.52191898 -21.625 256.5 C-6.6434469 269.35369086 11.02066703 278.82820599 28.375 288.0625 C29.07028809 288.4325415 29.76557617 288.80258301 30.48193359 289.18383789 C33.92448329 290.99090043 37.35539531 292.64206814 41 294 C41 294.66 41 295.32 41 296 C39.84721558 296.09704224 39.84721558 296.09704224 38.67114258 296.19604492 C6.43028768 298.99468854 -23.59547607 304.98323235 -49.29296875 325.8984375 C-51.50748787 327.6176457 -53.4459015 328.89058251 -56 330 C-55.9123127 327.62337178 -55.80536886 325.25016873 -55.6875 322.875 C-55.66494141 322.20984375 -55.64238281 321.5446875 -55.61914062 320.859375 C-55.36949368 316.22955894 -54.48144962 312.91807836 -52 309 C-51.29617188 308.48308594 -50.59234375 307.96617187 -49.8671875 307.43359375 C-47.78734012 306.12946183 -47.78734012 306.12946183 -47.3203125 303.66015625 C-47.22363281 302.37431641 -47.22363281 302.37431641 -47.125 301.0625 C-47.04507813 300.20785156 -46.96515625 299.35320312 -46.8828125 298.47265625 C-47.01963918 295.58561339 -47.22517198 294.29768277 -49 292 C-54.09938337 289.38626582 -57.86574982 288.62351337 -63.6796875 288.63671875 C-64.40125534 288.63535919 -65.12282318 288.63399963 -65.86625671 288.63259888 C-68.20292326 288.63406855 -70.53851475 288.65924244 -72.875 288.6875 C-74.49991845 288.69818609 -76.12483708 288.70884668 -77.74975586 288.71948242 C-90.89264601 288.84251514 -103.93787873 289.49228766 -117 291 C-117.86882812 291.09651855 -118.73765625 291.19303711 -119.6328125 291.29248047 C-142.10442111 293.9081551 -162.19970916 302.10574605 -176.75 320.2109375 C-181.94798371 327.65055169 -183.3662225 334.99344089 -182 344 C-179.43650555 351.79339737 -175.2308769 358.80632503 -168 363 C-161.45412562 365.90243986 -155.52801192 366.39038332 -148.4375 366.1875 C-147.06754883 366.16719727 -147.06754883 366.16719727 -145.66992188 366.14648438 C-143.44596741 366.11155315 -141.22332048 366.06251586 -139 366 C-139.03480469 365.24074219 -139.06960938 364.48148437 -139.10546875 363.69921875 C-139.13253906 362.70535156 -139.15960937 361.71148437 -139.1875 360.6875 C-139.22230469 359.70136719 -139.25710938 358.71523438 -139.29296875 357.69921875 C-139 355 -139 355 -137.92578125 353.14453125 C-134.84367469 351.31277218 -132.52363175 351.63005529 -129 352 C-126.46500444 353.01233411 -124.24604859 354.01754269 -121.875 355.3125 C-120.98361328 355.7755957 -120.98361328 355.7755957 -120.07421875 356.24804688 C-117.47685367 357.60980009 -114.98298888 359.01159478 -112.55859375 360.6640625 C-109.1862945 362.42486608 -105.91506373 362.73154808 -102.1875 363.0625 C-100.66274441 363.22380708 -99.1380052 363.38526906 -97.61328125 363.546875 C-95.37212719 363.77009938 -93.13066425 363.9877946 -90.88818359 364.19726562 C-78.19398458 365.40478492 -65.823204 367.8725242 -55 375 C-55 375.66 -55 376.32 -55 377 C-55.54712646 377.11480713 -56.09425293 377.22961426 -56.65795898 377.34790039 C-86.40913034 383.7069531 -107.55208026 395.59880503 -127.74609375 418.4921875 C-130.07945032 421.08840053 -132.51245855 423.55194333 -135 426 C-139.42548262 418.85600663 -141.43175296 412.43541117 -140 404 C-139.019016 402.32207027 -138.01851842 400.65541475 -137 399 C-136.22607108 396.11972928 -136.22607108 396.11972928 -135.8125 393.1875 C-135.65394531 392.21167969 -135.49539063 391.23585938 -135.33203125 390.23046875 C-135.22246094 389.49441406 -135.11289063 388.75835937 -135 388 C-135.680625 388.24234375 -136.36125 388.4846875 -137.0625 388.734375 C-143.07514502 390.81321503 -149.06473724 392.54358008 -155.25 394 C-165.28977281 396.41778928 -172.05111209 399.51543345 -178.25 408.125 C-182.45153919 415.02752868 -182.05185453 424.31173407 -180.31640625 432.046875 C-179.35914221 434.79553357 -178.25895662 437.37619321 -177 440 C-176.57589844 440.91394531 -176.15179687 441.82789063 -175.71484375 442.76953125 C-169.66651279 454.81565001 -160.36855986 462.60720145 -149.8515625 470.57470703 C-148.0303883 471.97660774 -146.2456204 473.41356645 -144.46875 474.87109375 C-124.55786301 491.20298584 -103.22762119 504.9035476 -80.29736328 516.56396484 C-72.30211776 520.69242382 -65.07500935 525.45770498 -58 531 C-60.50962891 536.65584662 -64.69532841 540.06105972 -70.375 542.375 C-77.34207594 543.57621999 -84.2032739 542.95529299 -91.20727539 542.28833008 C-106.48482045 540.84062241 -121.66601641 540.70007455 -137 541 C-137.89799316 541.01401855 -138.79598633 541.02803711 -139.72119141 541.04248047 C-150.63860338 541.06286657 -150.63860338 541.06286657 -160 546 C-163.89732585 551.15452774 -163.80418132 556.81511457 -163 563 C-162.15321562 566.42044788 -161.11621858 569.78025901 -159.95507812 573.10668945 C-155.77280629 585.65810422 -155.64799322 599.1982882 -155.68432617 612.30102539 C-155.68751207 614.69657946 -155.6638096 617.09092288 -155.63867188 619.48632812 C-155.55762031 638.72500043 -160.25918381 654.51311348 -173.1953125 669.23828125 C-183.69483525 679.5769478 -196.03191072 686.00577482 -210.875 686.0625 C-212.58338595 686.04655506 -214.29175867 686.02735618 -216 686 C-214.73009764 681.8942467 -213.19408203 678.24256411 -211.13671875 674.47265625 C-210.58145508 673.43987549 -210.02619141 672.40709473 -209.45410156 671.34301758 C-208.87112305 670.26044678 -208.28814453 669.17787598 -207.6875 668.0625 C-196.11393663 646.21099224 -190.84143276 624.32847253 -197.7421875 599.9296875 C-201.17313027 588.85388652 -206.1763938 579.35193186 -213 570 C-213.7425 568.948125 -214.485 567.89625 -215.25 566.8125 C-255.37833869 525.77215362 -340.91239484 491.79848344 -397.76708984 490.74121094 C-400.49853429 490.72084204 -403.22945243 490.72538358 -405.9609375 490.734375 C-407.4457709 490.73302125 -408.93060387 490.73107489 -410.41543579 490.72857666 C-413.50291227 490.72565683 -416.5902717 490.72981898 -419.67773438 490.73925781 C-423.58241839 490.75063019 -427.4868266 490.74408666 -431.39150047 490.73211288 C-434.45122248 490.72479101 -437.51088206 490.72722913 -440.57060623 490.73236847 C-442.00792094 490.7336777 -443.44524182 490.73215627 -444.88254929 490.72740936 C-458.72552674 490.69170862 -472.57542976 491.67127652 -486 495.25 C-486.82395264 495.46398437 -487.64790527 495.67796875 -488.49682617 495.8984375 C-494.16379569 497.4112233 -499.76042666 499.10914774 -505.3125 501 C-506.32473633 501.33692871 -506.32473633 501.33692871 -507.35742188 501.68066406 C-512.93308751 503.67277374 -518.11095706 506.34151762 -521.6015625 511.25390625 C-521.93929688 512.01574219 -522.27703125 512.77757812 -522.625 513.5625 C-523.02332031 514.42875 -523.42164063 515.295 -523.83203125 516.1875 C-524.6313859 518.11236738 -525.39822058 520.0509739 -526.13671875 522 C-529.27160518 530.16528559 -533.32388851 538.19173246 -541.6875 542 C-557.56494498 546.79319094 -574.12379674 544.22908892 -588.75 536.8125 C-606.90405747 526.37503207 -618.28359935 511.47500718 -624.75390625 491.6953125 C-627.48520672 481.2667107 -626.97409616 470.6137993 -622 461 C-618.74091085 455.78262952 -615.1709404 450.97478037 -610.6875 446.75 C-607.22859038 443.4411344 -604.40685019 439.77172125 -601.5625 435.9375 C-600.91704224 435.08140137 -600.91704224 435.08140137 -600.25854492 434.20800781 C-592.43507513 423.48282105 -586.66360453 411.56872978 -581.13128662 399.55731201 C-579.39964273 395.8019334 -577.64331398 392.05809009 -575.890625 388.3125 C-575.54913422 387.58155121 -575.20764343 386.85060242 -574.85580444 386.09750366 C-566.78630551 368.83295775 -557.81608026 352.33939049 -548 336 C-547.1656543 334.60418701 -547.1656543 334.60418701 -546.31445312 333.18017578 C-534.15898692 312.91263418 -520.38513211 293.9250471 -505.0625 275.9375 C-504.41849243 275.18001465 -504.41849243 275.18001465 -503.76147461 274.40722656 C-494.56836864 263.74422018 -484.78733789 253.62626994 -474.83984375 243.671875 C-473.71742705 242.54622937 -472.59507857 241.42051572 -471.47279358 240.29473877 C-469.14433657 237.96036429 -466.8138949 235.6279928 -464.48217773 233.296875 C-461.52343874 230.33823802 -458.5716734 227.3727463 -455.62157345 224.4054985 C-453.31449917 222.08721365 -451.00280056 219.77358127 -448.68985176 217.46115875 C-447.60040399 216.37054733 -446.512538 215.27835298 -445.42643547 214.1844101 C-420.80557937 189.40226696 -420.80557937 189.40226696 -410 186.8125 C-409.01 186.544375 -408.02 186.27625 -407 186 C-405.91708669 184.13147925 -405.91708669 184.13147925 -405 182 C-399.15324952 173.44377978 -390.17191775 168.12475823 -381.25 163.25 C-375.92138805 160.33357113 -371.24736009 156.98717377 -366.5625 153.125 C-359.35760486 147.19193837 -351.87659236 141.99832696 -344 137 C-343.24009766 136.51450684 -342.48019531 136.02901367 -341.69726562 135.52880859 C-322.46398158 123.28207291 -302.50153409 112.34525809 -282.41821289 101.56713867 C-278.0033017 99.19395376 -273.61271904 96.80080891 -269.29296875 94.2578125 C-268.22381226 93.63289917 -268.22381226 93.63289917 -267.13305664 92.99536133 C-265.86308268 92.24727333 -264.59955482 91.48803454 -263.34545898 90.71362305 C-259.93589908 88.70968641 -257.01974107 87.73187323 -253.10546875 87.08984375 C-247.62033282 86.12807644 -243.76863946 83.81292965 -239.1875 80.75 C-227.17859022 73.09503736 -214.87669768 66.3810311 -200.3125 65.75 C-196.50707649 65.42382084 -194.70192117 64.21450629 -191.8125 61.75 C-183.55090776 54.77037897 -172.41667306 52.79486625 -162.16625977 50.08764648 C-156.10347022 48.43404274 -150.33336985 46.26379532 -144.5 43.9375 C-137.08352703 40.98208389 -129.87500531 38.90172899 -122.04833984 37.36914062 C-116.93016801 36.32862681 -112.85421635 34.70861138 -108.34375 32.13671875 C-105.62230985 30.81682028 -103.09149641 30.31959789 -100.125 29.75 C-92.67761993 28.11544515 -87.72597343 23.84271157 -82 19 C-82.73861196 15.06646188 -84.48255433 12.95680131 -87.0390625 9.9765625 C-88.4321113 7.1111857 -87.70688313 5.02341578 -87 2 C-86.1013623 2.04543945 -86.1013623 2.04543945 -85.18457031 2.09179688 C-46.74769226 4.39893842 -46.74769226 4.39893842 -8.59765625 0.65625 C-5.61048611 0.11135903 -3.01825479 -0.14175756 0 0 Z " fill="#E9E6DF" transform="translate(1641,0)"/>
<path d="M0 0 C0.74556782 -0.00029457 1.49113564 -0.00058914 2.25929642 -0.00089264 C24.44228139 -0.0023066 46.42656378 0.10917965 68.4375 3.25 C69.14686707 3.34945923 69.85623413 3.44891846 70.58709717 3.5513916 C135.18776991 12.65304189 205.17338422 33.32346248 253.4375 79.25 C254.15679688 79.90484375 254.87609375 80.5596875 255.6171875 81.234375 C273.96346024 98.47545058 288.09620476 127.12459999 289.6875 152.1875 C289.60674963 157.4665557 287.83779119 161.58715421 284.4375 165.625 C280.75574927 168.61642247 276.8722047 168.73517411 272.29760742 168.62597656 C262.61265005 167.35283663 255.48110455 158.6826188 249.125 152 C205.77516985 107.6753771 135.04080295 87.9358714 73.9296875 87.12890625 C64.29749076 87.1820494 54.68365925 87.79202453 45.07104492 88.36694336 C41.74777191 88.5626312 38.42384045 88.74135254 35.09960938 88.91992188 C32.95827163 89.04582993 30.81699301 89.17274845 28.67578125 89.30078125 C27.69636063 89.35091873 26.71694 89.40105621 25.70783997 89.45271301 C15.0432944 90.0633215 15.0432944 90.0633215 5.73239136 94.70545959 C3.34318476 97.55529414 2.45445964 100.23168025 2.39282227 103.93261719 C2.49135498 104.87782227 2.5898877 105.82302734 2.69140625 106.796875 C2.85600342 108.37952148 2.85600342 108.37952148 3.02392578 109.99414062 C3.68329272 115.18500104 4.51570864 120.33908972 5.375 125.5 C16.70699367 197.20611001 7.7871078 278.78877842 -34.80078125 339.4375 C-36.99373622 342.42895544 -39.25119227 345.34915263 -41.5625 348.25 C-42.34625 349.23871094 -43.13 350.22742187 -43.9375 351.24609375 C-55.74915658 365.81656004 -69.24819221 379.38122194 -84.5625 390.25 C-85.15595215 390.6718457 -85.7494043 391.09369141 -86.36083984 391.52832031 C-134.14441472 425.11008369 -193.92601553 438.77062586 -251.68310547 428.80224609 C-294.24555097 420.63909095 -335.87400659 398.09524726 -361.03125 362.03515625 C-380.66653278 333.06276423 -387.7851641 301.07532679 -387.8125 266.4375 C-387.81317474 265.66543213 -387.81384949 264.89336426 -387.81454468 264.09790039 C-387.75536585 221.29888992 -374.79481542 177.40289925 -344.4609375 146.05859375 C-313.44854036 115.31008699 -265.68059778 106.09540345 -223.6875 105.6875 C-222.86974091 105.67269592 -222.05198181 105.65789185 -221.20944214 105.64263916 C-218.8704724 105.60722299 -216.53445915 105.60804418 -214.1953125 105.62109375 C-213.49750168 105.60802689 -212.79969086 105.59496002 -212.08073425 105.58149719 C-208.29174481 105.65297215 -206.65034644 106.18104062 -203.63623047 108.54711914 C-201.39654885 111.46629917 -200.61626706 113.498929 -200.921875 117.21484375 C-203.11912665 124.19513709 -211.54206365 127.49439278 -217.5625 130.6875 C-221.86938777 132.92651742 -226.20811008 135.09108637 -230.58984375 137.1796875 C-255.50513959 149.11742611 -279.21560814 165.57463528 -289.5625 192.25 C-294.64511326 207.00480454 -295.27104459 220.81507455 -288.9375 235.3125 C-279.9726811 251.75923542 -264.03078255 257.45056686 -247.14331055 262.54394531 C-222.92611049 269.16925442 -198.58883372 266.69231103 -176.5703125 254.1953125 C-162.30230312 244.96743111 -156.02902191 233.18242516 -152.01391602 217.04516602 C-151.42312811 213.38700987 -151.38102932 209.76982405 -151.359375 206.07421875 C-151.35231537 205.28067993 -151.34525574 204.48714111 -151.33798218 203.66955566 C-151.21698542 186.01649384 -151.29278531 168.66115483 -154.5625 151.25 C-154.73990723 150.28078613 -154.91731445 149.31157227 -155.10009766 148.31298828 C-160.49103601 119.95912169 -170.98985702 92.66707172 -181.46118164 65.86132812 C-181.86220596 64.83356262 -181.86220596 64.83356262 -182.27133179 63.78503418 C-182.99306082 61.94007955 -183.71938322 60.09692365 -184.44604492 58.25390625 C-186.93198835 51.56528874 -188.03910783 44.74016397 -185.1875 38 C-156.73639326 8.19407865 -90.5006121 3.71982356 -51.5625 1.25 C-50.33764893 1.16459961 -49.11279785 1.07919922 -47.85083008 0.99121094 C-31.91970263 -0.03800689 -15.9574948 0.00289383 0 0 Z " fill="#EAE7E0" transform="translate(1387.5625,804.75)"/>
<path d="M0 0 C5.32185521 2.77363725 9.95403158 6.5279049 14.65576172 10.22192383 C21.1344797 15.28708642 27.94042302 19.81067482 34.87109375 24.23046875 C35.45020508 24.59994629 36.02931641 24.96942383 36.62597656 25.35009766 C70.25845271 46.59216356 124.92092622 78.45883607 165.99609375 69.85546875 C166.80957275 69.68756836 167.62305176 69.51966797 168.46118164 69.34667969 C190.71817373 64.57578035 213.33063541 59.46646331 234.35546875 50.62890625 C237.87109375 49.23046875 237.87109375 49.23046875 240.87109375 49.23046875 C240.83628906 50.68453125 240.83628906 50.68453125 240.80078125 52.16796875 C240.42110417 74.82869553 244.13580396 95.61121362 260.1953125 112.77734375 C275.31778327 126.64144834 295.06264015 133.10609577 315.37109375 132.51953125 C325.41450486 132.00877658 334.92417952 129.52087257 344.28515625 125.90234375 C347.40629077 125.09141454 348.87094582 125.00942285 351.87109375 126.23046875 C353.64730243 128.29624422 355.08496126 130.21702673 356.55859375 132.48046875 C357.43811851 133.76828545 358.31967873 135.05471405 359.203125 136.33984375 C359.64736816 136.99275391 360.09161133 137.64566406 360.54931641 138.31835938 C372.43299014 155.50951798 386.79063374 172.84922882 402.87109375 186.23046875 C403.77859375 187.03742188 404.68609375 187.844375 405.62109375 188.67578125 C426.75072123 207.35225763 451.68992895 220.97961909 478.99609375 227.98046875 C479.77073975 228.17938721 480.54538574 228.37830566 481.34350586 228.58325195 C494.51002024 231.77459489 507.45514668 232.59806152 520.93359375 232.54296875 C521.74248047 232.54280762 522.55136719 232.54264648 523.38476562 232.54248047 C534.78803823 232.52670519 545.84664859 231.94615824 557.08984375 229.88671875 C560.13881029 229.35755927 562.7963191 229.08405091 565.87109375 229.23046875 C565.7102832 229.7723584 565.54947266 230.31424805 565.38378906 230.87255859 C563.48387721 237.30813731 561.65044152 243.76051915 559.87109375 250.23046875 C559.64776367 251.04064453 559.42443359 251.85082031 559.19433594 252.68554688 C554.77159092 269.14916231 553.1072403 285.59988955 560.8984375 301.30078125 C564.68832838 307.5318474 571.30329828 310.90605982 577.96484375 313.37890625 C584.12357073 314.72150873 590.31256869 314.55299244 596.59765625 314.53320312 C604.12742211 314.68517106 604.12742211 314.68517106 608.01953125 317.5390625 C610.92518356 321.76267947 611.30363507 325.47612516 610.53125 330.39453125 C607.63873835 341.09493381 598.84080055 349.2604192 589.87109375 355.23046875 C582.68866779 358.75327767 574.49542191 357.39469688 566.74609375 356.73046875 C522.57453643 353.36269256 479.30053475 360.77023887 440.93359375 383.4375 C426.58087943 391.84042841 412.45168045 393.74625828 396.12109375 389.66796875 C388.08072798 387.19468232 380.44390393 383.86516826 372.87109375 380.23046875 C371.9171875 379.78058594 370.96328125 379.33070313 369.98046875 378.8671875 C355.95913437 371.7515702 344.16029913 361.00098091 332.87109375 350.23046875 C324.07874585 341.91413968 314.65729026 333.98703566 301.9765625 333.9921875 C300.86434326 333.97969971 299.75212402 333.96721191 298.60620117 333.9543457 C297.43549072 333.94234131 296.26478027 333.93033691 295.05859375 333.91796875 C283.83879141 333.64471674 274.30051374 332.29473392 263.87109375 328.23046875 C263.23896973 328.00198242 262.6068457 327.77349609 261.95556641 327.53808594 C254.07587798 324.68777142 245.67566152 321.43732041 240.87109375 314.23046875 C239.80140494 310.45313013 239.17525409 306.73843605 238.58203125 302.859375 C237.12785826 295.43670078 233.28061004 290.99770998 227.24609375 286.66796875 C225.46294603 285.50892273 223.67059721 284.36395487 221.87109375 283.23046875 C219.74327593 281.81803795 217.6183025 280.40131339 215.49609375 278.98046875 C214.03042969 278.01367188 214.03042969 278.01367188 212.53515625 277.02734375 C210.25678681 275.49061363 208.05026832 273.90357908 205.87109375 272.23046875 C206.49251521 264.66984101 208.60492213 257.67416145 210.74609375 250.41796875 C211.79683785 246.81349312 212.84585581 243.20853892 213.89135742 239.60253906 C214.51413828 237.45904313 215.14374025 235.31750831 215.7824707 233.17871094 C218.45955434 223.93858323 220.04015284 213.40605935 216.24609375 204.23046875 C215.49762213 202.87241716 214.70615466 201.53706248 213.87109375 200.23046875 C213.49339844 199.57046875 213.11570312 198.91046875 212.7265625 198.23046875 C203.19845244 183.49212327 183.1594364 176.76746966 166.87109375 173.23046875 C160.90326793 172.15254806 155.04193119 172.01328198 148.99609375 171.98046875 C148.05378906 171.95984375 147.11148437 171.93921875 146.140625 171.91796875 C136.1542629 171.86271917 129.36373488 173.84887301 122.02734375 180.82226562 C118.15984568 185.14167243 115.2966151 189.99565494 112.37109375 194.98046875 C111.07691601 197.11961221 109.77877228 199.25636156 108.4765625 201.390625 C107.85958496 202.4027002 107.24260742 203.41477539 106.60693359 204.45751953 C103.36137242 209.6422008 99.71232968 214.47192274 95.87109375 219.23046875 C95.22269531 220.08898437 94.57429687 220.9475 93.90625 221.83203125 C91.9059555 224.18938408 90.07214249 225.73223861 87.49609375 227.41796875 C86.76648438 227.90652344 86.036875 228.39507813 85.28515625 228.8984375 C70.28128418 237.17727306 49.36400391 231.41766246 33.87109375 227.23046875 C21.9584056 223.71968355 11.69425184 216.48427209 5.3828125 205.68359375 C2.37616255 199.93444398 0.04685773 194.0747306 -2.12890625 187.98046875 C-6.2972663 176.49225863 -11.75301191 170.47546132 -22.63818359 164.95874023 C-28.86112392 162.0533582 -34.86781379 159.96327173 -41.56640625 158.48046875 C-42.60829102 158.24223389 -43.65017578 158.00399902 -44.72363281 157.75854492 C-60.17128169 154.37792048 -75.82560822 151.93797355 -91.42749023 149.38964844 C-92.54701584 149.20317245 -93.66654144 149.01669647 -94.81999207 148.8245697 C-96.94041518 148.47139563 -99.06213356 148.12588268 -101.18525696 147.7893219 C-106.28546219 146.93276592 -110.69969376 146.0719091 -115.12890625 143.23046875 C-117.06640625 140.23046875 -117.06640625 140.23046875 -118.12890625 137.23046875 C-117.12890625 134.23046875 -117.12890625 134.23046875 -114.89477539 132.56616211 C-109.25002118 130.56405836 -103.82047548 130.82986371 -97.875 130.859375 C-95.89936814 130.84643611 -93.92373614 130.83347382 -91.94811344 130.81920528 C-87.10372834 130.78936669 -82.2592522 130.79267867 -77.41479492 130.79467773 C-74.69279969 130.79471932 -71.97119576 130.78396764 -69.24928284 130.76292419 C-66.69819198 130.74442391 -64.14691111 130.74215111 -61.59580994 130.75917053 C-51.37371416 130.67230065 -40.88338256 129.47810243 -33.12890625 122.23046875 C-31.81207628 119.33247051 -31.81207628 119.33247051 -33.00390625 116.91796875 C-35.06201414 114.31506759 -36.62633296 113.11692777 -39.37890625 111.35546875 C-47.49361801 106.15677536 -52.73266666 100.78723605 -55.12890625 91.23046875 C-57.59152292 76.22244641 -48.62995418 60.11214508 -42.44140625 46.85546875 C-42.08819305 46.09243439 -41.73497986 45.32940002 -41.37106323 44.54324341 C-17.76280742 -6.42068452 -17.76280742 -6.42068452 0 0 Z " fill="#EAE7E0" transform="translate(757.12890625,432.76953125)"/>
<path d="M0 0 C0.21875 5.6640625 0.21875 5.6640625 -1.75 8.6875 C-5.69798398 11.49664244 -9.13007141 12.10916599 -13.80859375 13.13671875 C-24.72970605 16.09089968 -35.40051444 23.84587487 -42 33 C-42 33.66 -42 34.32 -42 35 C-39.03 35.66 -36.06 36.32 -33 37 C-32.25390625 39.1953125 -32.25390625 39.1953125 -32 42 C-34.47609036 45.78409878 -37.79157939 48.82645353 -41 52 C-41.93585938 52.96873047 -41.93585938 52.96873047 -42.890625 53.95703125 C-48.68698003 59.53917316 -55.77601706 62.6619517 -63 66 C-62.35933594 66.90621094 -61.71867187 67.81242187 -61.05859375 68.74609375 C-58.38963325 72.96477326 -58.07850082 75.05444805 -58 80 C-60.23631066 86.26166986 -66.89540131 89.87253642 -72.5 92.875 C-73.325 93.24625 -74.15 93.6175 -75 94 C-75 95.98 -75 97.96 -75 100 C-40.60761118 111.57909939 -6.83882408 116.66235314 27.953125 103.890625 C31 103 31 103 34 104 C25.94194607 117.81067009 16.43349698 128.80131082 5.03173828 139.9831543 C4.26845215 140.73250244 3.50516602 141.48185059 2.71875 142.25390625 C2.02716797 142.92752197 1.33558594 143.6011377 0.62304688 144.29516602 C-1.08152143 145.9190227 -1.08152143 145.9190227 -2 148 C5.92 148 13.84 148 22 148 C17.81350562 160.55948315 10.43696898 166.96443889 0.40625 174.96875 C-2.05006724 176.7709759 -2.05006724 176.7709759 -3 179 C2.15810572 180.03162114 5.1022139 179.73463258 10 178 C12.33212027 177.92477031 14.6685311 177.90674124 17 178 C15.0107027 186.20585136 5.78629914 190.99142961 -0.80078125 195.32421875 C-3.05526529 197.04211156 -4.51090529 198.59528071 -6 201 C-6.15474612 203.56189845 -6.15474612 203.56189845 -5 206 C-2.74544973 208.18182284 -0.28127044 209.81717422 2.34375 211.5234375 C12.60013514 218.35073002 18.52211421 226.77576342 21 239 C21.60238062 246.25173594 21.23528675 253.37422824 18 260 C14.97902198 263.50433451 11.67780101 265.86568785 7.0234375 266.23828125 C-6.30108353 266.50933682 -6.30108353 266.50933682 -12 262 C-13.93410975 260.09642883 -15.3844687 258.21558578 -17 256 C-17.598125 255.2575 -18.19625 254.515 -18.8125 253.75 C-20 252 -20 252 -20 250 C-28.24844781 248.87521166 -35.03822545 253.26128436 -41.64453125 257.828125 C-49.43328213 263.86287371 -56.39404014 270.85960131 -62.75 278.375 C-67.26944834 283.61249154 -72.14213684 286.79283213 -79 288 C-83.74897201 288.32751531 -88.49198982 288.33893614 -93.25 288.3125 C-93.95005157 288.31034485 -94.65010315 288.3081897 -95.37136841 288.30596924 C-123.34050012 288.1699888 -151.03708774 284.5377837 -178.73999023 280.98193359 C-179.76630051 280.85146133 -180.79261078 280.72098907 -181.85002136 280.58656311 C-183.77712625 280.34097135 -185.70377125 280.09173168 -187.62983704 279.83811951 C-196.22811286 278.59195074 -196.22811286 278.59195074 -204.6875 279.875 C-210.79672081 285.48887858 -211.88564397 295.37596614 -213.375 303.1875 C-217.01489326 320.88829238 -223.04075698 335.83918706 -237 348 C-238.03125 348.66 -239.0625 349.32 -240.125 350 C-243.5067506 352.35252216 -245.23557424 354.93650633 -247.41015625 358.390625 C-249 360 -249 360 -251.50390625 360.36328125 C-254 360 -254 360 -256.875 357.9375 C-259 355 -259 355 -259.1875 351.8125 C-257.87170125 347.58809349 -255.92236192 344.46778773 -253.5625 340.7578125 C-248.42791307 331.69526656 -246.82598351 322.04877605 -246.875 311.8125 C-246.87113281 310.99330078 -246.86726562 310.17410156 -246.86328125 309.33007812 C-246.74771003 305.02981227 -246.74771003 305.02981227 -248 301 C-248.94875 301.804375 -249.8975 302.60875 -250.875 303.4375 C-253.457069 305.62664546 -255.23359039 306.85401722 -258.625 307.5 C-263.86215894 306.7241246 -266.53877452 303.87885049 -270 300 C-271.54031582 297.85003204 -273.03663049 295.7002324 -274.5 293.5 C-280.97723182 283.78897267 -288.78221346 276.91446336 -300.5390625 274.47265625 C-304.02729251 274.06846452 -307.38580632 273.97264724 -310.89453125 274.12890625 C-318.41949075 274.44118703 -318.41949075 274.44118703 -322.125 271.625 C-324.03122886 268.95627959 -324.90288788 267.42729333 -325.625 264.25 C-324.88320647 260.39267365 -324.23392296 260.00735582 -321.125 257.8125 C-307.7354589 249.77035424 -293.05079814 250.44962154 -278.125 252.4375 C-263.62803827 254.25597482 -249.37168843 255.05991969 -234.765625 255.03125 C-233.1539444 255.02897652 -233.1539444 255.02897652 -231.50970459 255.0266571 C-228.00646049 255.02008527 -224.50323556 255.01009587 -221 255 C-219.2065918 254.99669174 -219.2065918 254.99669174 -217.37695312 254.99331665 C-209.92933182 254.97763131 -202.48283492 254.92936127 -195.03564453 254.84741211 C-192.47614298 254.82380778 -189.9165385 254.80974042 -187.35693359 254.80444336 C-183.59672787 254.79520743 -179.83801835 254.75445711 -176.078125 254.70703125 C-174.36426605 254.71293022 -174.36426605 254.71293022 -172.61578369 254.71894836 C-166.13261725 254.76931116 -166.13261725 254.76931116 -160.79492188 251.5703125 C-156.40243908 245.28031538 -157.45311991 236.42845457 -158 229 C-159.00977375 223.53534207 -160.86230692 218.819409 -165 215 C-175.75632399 208.44685767 -187.56183522 206.3314657 -200 208 C-203.81917802 209.15853727 -207.38712291 210.65268486 -211.01953125 212.28125 C-233.31166267 222.22134794 -258.01982597 224.35727366 -282.07373047 225.78588867 C-298.35710706 226.81699038 -313.53304468 230.7000275 -329.11895752 235.34817505 C-381.87105482 251.02379271 -381.87105482 251.02379271 -400 243 C-407.80697082 238.40766422 -414.02491536 232.15014881 -416.52734375 223.32421875 C-417.89100787 216.61859764 -417.36796384 211.69786246 -414.16796875 205.62890625 C-413 204 -413 204 -410 202 C-407.90625 201.76953125 -407.90625 201.76953125 -405.5 201.8125 C-404.18708984 201.83570313 -404.18708984 201.83570313 -402.84765625 201.859375 C-398.93218201 202.05273175 -395.046932 202.43646355 -391.15234375 202.87890625 C-390.44207031 202.91886719 -389.73179687 202.95882812 -389 203 C-386.73360174 200.73360174 -387.54355086 195.45972349 -387.37890625 192.39453125 C-387.00125767 189.01126719 -386.19140809 186.17869606 -385 183 C-376.52245175 184.95635729 -370.52797888 191.47683463 -364.375 197.25 C-358.86112742 202.39679034 -358.86112742 202.39679034 -352 205 C-346.73866187 204.56353907 -341.71972533 203.19442792 -336.625 201.875 C-333.50950824 201.12298475 -331.15686545 200.92406166 -328 201 C-327.88996704 193.72210551 -329.63017191 188.0393383 -332.5625 181.5 C-335.53530226 174.84405376 -337.00511054 169.38676476 -336 162 C-332.44588745 161.069161 -330.53603844 160.78227929 -327.0859375 162.18359375 C-323.87509524 164.07351989 -321.77293694 166.02387351 -319.25 168.75 C-310.22901079 178.02795892 -299.99791045 185.29351955 -286.77734375 186.109375 C-281.38218108 185.89690727 -276.51393184 184.14685155 -271.63671875 181.921875 C-268.41894981 180.79684764 -265.58993449 180.6862931 -262.1875 180.5625 C-256.49507114 180.27097484 -256.49507114 180.27097484 -251.1875 178.4375 C-239.0834024 173.18680944 -222.74241164 178.07842581 -210.5625 180.875 C-208.89424669 181.24514523 -207.22562649 181.61364075 -205.55664062 181.98046875 C-202.4024566 182.6756363 -199.24974684 183.37685182 -196.09838867 184.0847168 C-192.76513964 184.83133521 -189.43022881 185.56581985 -186.0859375 186.26171875 C-185.37099121 186.41084717 -184.65604492 186.55997559 -183.91943359 186.71362305 C-180.66973918 187.19847316 -178.12554271 186.95679879 -175 186 C-172.00705113 181.7886102 -169.96355361 176.9333066 -167.8125 172.25 C-167.44447266 171.48945313 -167.07644531 170.72890625 -166.69726562 169.9453125 C-164.25171545 164.59141787 -163.16238416 159.89174172 -164 154 C-165.46022474 150.71449433 -166.56844491 148.72186927 -169.8359375 147.07421875 C-171.21261166 146.55994392 -172.6046567 146.08531751 -174.0078125 145.6484375 C-176 145 -176 145 -178.75 143.4375 C-185.78343143 140.32655917 -193.44705842 139.63130567 -201.0625 140.22265625 C-204.15892838 141.46497328 -205.21622198 143.19381263 -207 146 C-208.14013041 149.05183909 -208.95747342 152.15485477 -209.75 155.3125 C-209.97042969 156.14845703 -210.19085938 156.98441406 -210.41796875 157.84570312 C-210.95644189 159.89424225 -211.47975929 161.94675489 -212 164 C-215.91192382 160.46346281 -217.96135668 157.45984163 -219.875 152.5625 C-222.00585913 147.32667471 -224.27055651 142.23664664 -226.8125 137.1875 C-227.39644531 136.02605469 -227.98039063 134.86460937 -228.58203125 133.66796875 C-229.7545459 131.14793954 -229.7545459 131.14793954 -231 130 C-233.18590788 129.86653208 -235.37402811 129.76872642 -237.5625 129.6875 C-243.76541278 129.28241182 -247.86584862 128.52343722 -253 125 C-253.69921875 122.86328125 -253.69921875 122.86328125 -254 121 C-244.23521408 113.43039851 -233.57517738 111.2502819 -221.71875 108.9453125 C-204.35084603 105.51487737 -187.03499493 101.83745992 -169.71972656 98.15209961 C-165.87904327 97.33520412 -162.03721549 96.52402868 -158.19433594 95.7175293 C-153.48222652 94.72854979 -148.77228855 93.72979383 -144.0637207 92.72409248 C-142.29117324 92.34716536 -140.51790815 91.9735951 -138.74389648 91.60362053 C-122.08238208 88.73582702 -122.08238208 88.73582702 -109 79 C-105.71231623 72.89079658 -104.28464997 66.24456939 -102.78100586 59.53100586 C-101.07900008 52.06265932 -99.06441133 44.68797506 -97 37.3125 C-96.66774414 36.09449707 -96.33548828 34.87649414 -95.99316406 33.62158203 C-93.64430754 25.32436763 -91.52183277 18.89793762 -84 14 C-77.76780388 11.80285847 -71.48511604 11.32640933 -64.9375 10.6875 C-53.43116436 9.47699276 -42.42241307 7.27899202 -31.20727539 4.49682617 C-29.19520356 4.04393753 -27.15142562 3.73830423 -25.109375 3.44921875 C-21.83782899 3.11760783 -21.83782899 3.11760783 -18.4375 1.4375 C-12.58090853 -0.95152543 -6.20509105 -0.23530542 0 0 Z " fill="#EAE7DF" transform="translate(664,270)"/>
<path d="M0 0 C6.33935127 5.04266578 7.86060442 11.28395039 9 19 C10.18979994 38.85242738 9.33395598 53.35644302 -2 70 C-10.1977178 83.24246721 -13.23023297 96.89800176 -13.4140625 112.35546875 C-13.43342865 113.38311844 -13.4527948 114.41076813 -13.4727478 115.46955872 C-13.53188835 118.7087916 -13.57866369 121.9480613 -13.625 125.1875 C-13.66324024 127.40170706 -13.70229535 129.61590021 -13.7421875 131.83007812 C-13.83753474 137.21992733 -13.92276789 142.60986237 -14 148 C-18.44348926 148.84844562 -22.68636014 149.14705559 -27.20703125 149.2109375 C-28.60410085 149.23638271 -30.00115477 149.26270042 -31.39819336 149.28979492 C-32.11973602 149.30303802 -32.84127869 149.31628113 -33.58468628 149.32992554 C-56.47948327 149.7931468 -84.29839383 151.20563922 -101.4765625 168.4921875 C-104.54925116 172.03413681 -104.54925116 172.03413681 -107 176 C-106.77230871 178.96428285 -106.45086007 180.45112687 -104.5625 182.75 C-101.62337688 185.1012985 -99.34110508 185.21739592 -95.64453125 185.46484375 C-94.55406494 185.5417041 -93.46359863 185.61856445 -92.34008789 185.69775391 C-91.17598389 185.77687012 -90.01187988 185.85598633 -88.8125 185.9375 C-80.29017347 186.54536591 -71.87795838 187.26015696 -63.44140625 188.6328125 C-52.82981908 189.76503633 -43.42850158 188.03078517 -33.15625 185.5 C-31.65486388 185.14009688 -30.15318956 184.7813941 -28.65124512 184.42382812 C-24.73064388 183.48756514 -20.81361703 182.53717089 -16.89733887 181.58300781 C-10.60331396 180.05236659 -4.30376139 178.54459663 1.99531555 177.03491211 C4.18938848 176.50706377 6.38207859 175.9737665 8.57458496 175.43945312 C9.91363645 175.11580619 11.2527061 174.79223435 12.59179688 174.46875 C13.75996948 174.18451172 14.92814209 173.90027344 16.13171387 173.60742188 C19 173 19 173 22 173 C20.57493116 179.17529829 17.08882649 183.33730313 13 188 C12.43152344 188.66128906 11.86304688 189.32257813 11.27734375 190.00390625 C1.25350507 200.19240758 -14.36312685 205.2131489 -27.58178711 209.95141602 C-38.02987001 213.74592613 -48.55750557 218.86570003 -54 229 C-54.822374 231.75933613 -55.52544957 234.53767384 -56.234375 237.328125 C-58.92121437 246.70464607 -66.32995618 254.29206041 -74 260 C-74.66 260 -75.32 260 -76 260 C-75.55789474 253.07876592 -74.63218732 246.27424822 -73.5 239.4375 C-73.36940186 238.63973145 -73.23880371 237.84196289 -73.10424805 237.02001953 C-72.12660095 231.25320191 -72.12660095 231.25320191 -71 229 C-71.82467773 228.73388916 -72.64935547 228.46777832 -73.49902344 228.19360352 C-75.96274634 227.35363551 -78.34759909 226.47365609 -80.75878906 225.50756836 C-92.91296672 220.81838998 -103.83132451 220.23658053 -116.75 220.5625 C-118.64059586 220.58410217 -120.53122468 220.60299377 -122.421875 220.61914062 C-132.75996641 220.71008883 -132.75996641 220.71008883 -143 222 C-160.01865844 223.15092923 -173.58671196 219.19228245 -188.64331055 211.52978516 C-197.35741636 207.11963315 -205.97428619 204.23353481 -215.734375 206.6875 C-227.23756431 210.50071193 -235.15582135 217.40933249 -240.64282227 228.24389648 C-244.44917119 236.49348453 -248.09535678 244.79047732 -251.57086182 253.18475342 C-252.39849377 255.18168641 -253.23147369 257.17631485 -254.06591797 259.17041016 C-256.63867132 265.32041044 -259.19687779 271.47597725 -261.734375 277.640625 C-262.53090252 279.55222816 -263.32775221 281.46369712 -264.125 283.375 C-264.65552979 284.68428467 -264.65552979 284.68428467 -265.19677734 286.02001953 C-265.52629395 286.80489746 -265.85581055 287.58977539 -266.1953125 288.3984375 C-266.61321045 289.41429932 -266.61321045 289.41429932 -267.03955078 290.45068359 C-268 292 -268 292 -271 293 C-279.70020726 281.07787419 -279.64132983 266.30670457 -279.4375 252.125 C-279.42702412 250.41528356 -279.41660812 248.70556676 -279.40625 246.99584961 C-279.26268981 233.19226755 -278.12611943 219.64825427 -276 206 C-287.71065717 211.0221593 -292.1645081 217.64929175 -298 228.6875 C-298.5269043 229.66340088 -299.05380859 230.63930176 -299.59667969 231.64477539 C-302.30171586 236.68212965 -304.85289295 241.74815837 -307.25 246.9375 C-309.77313292 252.12644301 -313.12135926 255.879428 -318 259 C-318.66 259 -319.32 259 -320 259 C-320.89188327 250.80400762 -321.21306194 242.67930429 -321.25 234.4375 C-321.270625 233.28314453 -321.29125 232.12878906 -321.3125 230.93945312 C-321.34132963 224.58612373 -320.79104073 219.27875976 -318.73046875 213.26733398 C-317.61283722 209.79826848 -317.2685418 206.43666224 -316.875 202.8125 C-316.72713577 201.48561307 -316.5787027 200.15878941 -316.4296875 198.83203125 C-316.28789063 197.56746094 -316.14609375 196.30289063 -316 195 C-315.68432412 192.66366386 -315.34485123 190.33228332 -315 188 C-321.19065442 187.57305832 -324.00914879 187.87484177 -329 192 C-330.61620737 194.39388334 -331.76918054 196.92659321 -332.9375 199.5625 C-333.62331709 201.01115194 -334.31344893 202.45776881 -335.0078125 203.90234375 C-335.51296387 204.95784424 -335.51296387 204.95784424 -336.02832031 206.03466797 C-340.8907582 215.86949837 -347.95026326 224.64520818 -355 233 C-355.33 233 -355.66 233 -356 233 C-356.74141579 213.784974 -353.97560937 195.55120938 -350.46875 176.703125 C-349.93532936 173.82331344 -349.40431806 170.94306835 -348.875 168.0625 C-348.67819641 166.99622879 -348.67819641 166.99622879 -348.47741699 165.90841675 C-345.8705011 151.64720838 -344.65478045 137.48846106 -344 123 C-337.50616819 123.54182841 -331.21710463 124.42744387 -324.84790039 125.79418945 C-323.56477211 126.0627475 -323.56477211 126.0627475 -322.25572205 126.33673096 C-320.41331694 126.72295112 -318.5713996 127.11150421 -316.7299366 127.50219154 C-313.78658961 128.12622836 -310.84182055 128.74311233 -307.89659119 129.35820007 C-299.52705241 131.10747237 -291.16022709 132.86956515 -282.79418945 134.63549805 C-211.03428046 151.05018086 -211.03428046 151.05018086 -142.87011719 129.23876953 C-129.56654957 120.42645855 -117.15540813 109.28043847 -107 97 C-106.22914063 96.11699219 -105.45828125 95.23398437 -104.6640625 94.32421875 C-92.35152334 80.18237484 -81.49077866 64.92096109 -70.9921875 49.40625 C-39.41128021 2.75126108 -39.41128021 2.75126108 -21.45703125 -2.53125 C-13.91418849 -3.97026611 -6.68227231 -3.95481423 0 0 Z " fill="#E9E7DF" transform="translate(937,632)"/>
<path d="M0 0 C0.66 0 1.32 0 2 0 C2.3403125 1.22332031 2.680625 2.44664062 3.03125 3.70703125 C9.35370949 25.90564208 17.72850684 46.38588944 33 64 C33.67417969 64.80695313 34.34835937 65.61390625 35.04296875 66.4453125 C57.42612648 92.45706957 90.06323652 106.91112756 123.00170898 114.09814453 C124.01563721 114.32099121 125.02956543 114.54383789 126.07421875 114.7734375 C126.97744873 114.96341309 127.88067871 115.15338867 128.8112793 115.34912109 C131 116 131 116 133 118 C128.439348 120.32354288 123.87611602 122.52446449 119.16943359 124.53320312 C92.50310745 135.97840267 67.47019021 150.5818113 45 169 C44.48501953 169.42023438 43.97003906 169.84046875 43.43945312 170.2734375 C32.63178369 179.12917634 21.56031044 188.321923 12.60546875 199.08984375 C11.4804625 200.42835483 10.31187338 201.73086741 9.11328125 203.00390625 C-1.90383379 214.71340929 -11.38567963 228.06439963 -20.03100586 241.59448242 C-22.80398422 245.90199211 -22.80398422 245.90199211 -25 247 C-25.79874865 244.85679273 -26.58861858 242.71027584 -27.375 240.5625 C-27.81585937 239.36753906 -28.25671875 238.17257812 -28.7109375 236.94140625 C-34.26119182 220.63314969 -33.93342046 202.13148687 -28 186 C-27.38125 184.28683594 -27.38125 184.28683594 -26.75 182.5390625 C-21.28386669 168.71844136 -12.65723778 156.62920083 -3.93359375 144.6953125 C-2.03000894 142.19167663 -2.03000894 142.19167663 -1 140 C-39.24003265 130.7314555 -78.57902414 140.13608543 -112.1796875 159.8671875 C-134.22081379 173.95713826 -152.62708036 194.88124108 -161 220 C-161.4866946 224.2991356 -161.33928305 226.42321882 -159.125 230.1875 C-154.17823185 235.37049023 -147.35611337 237.20912028 -140.375 237.5 C-127.95076907 236.92577084 -118.24730492 226.79159367 -110.0234375 218.265625 C-98.94228807 205.85816038 -91.2969024 192.11043353 -84.375 177.0625 C-81.29647856 170.37662727 -78.11631767 164.39018383 -73 159 C-72.31550781 158.26652344 -71.63101562 157.53304688 -70.92578125 156.77734375 C-69 155 -69 155 -67 155 C-60.24637557 173.61266731 -64.37687564 193.27791808 -72.37109375 210.7890625 C-76.87678742 219.67078958 -82.63255337 227.3795217 -89 235 C-89.51820313 235.66515625 -90.03640625 236.3303125 -90.5703125 237.015625 C-103.98245525 253.59545976 -125.93147497 265.82230505 -146.875 268.71875 C-164.08346859 270.26751217 -179.03366163 267.84042322 -193.0625 257.4375 C-207.97745092 244.89961938 -218.36255778 224.18799705 -221 205 C-222.67477157 180.23534502 -213.04818569 158.37650684 -197.18359375 139.625 C-168.32831519 106.58841747 -121.7519643 96.7326489 -79.82006836 93.515625 C-58.81678524 92.10261202 -37.95971262 93.5385052 -17 95 C-15.75089844 95.0839502 -14.50179688 95.16790039 -13.21484375 95.25439453 C-12.05082031 95.3367334 -10.88679688 95.41907227 -9.6875 95.50390625 C-8.14642578 95.61134155 -8.14642578 95.61134155 -6.57421875 95.72094727 C-4 96 -4 96 -1 97 C-1.16604736 96.37134033 -1.33209473 95.74268066 -1.50317383 95.0949707 C-2.27500274 92.16801771 -3.04375723 89.240265 -3.8125 86.3125 C-4.07353516 85.32443359 -4.33457031 84.33636719 -4.60351562 83.31835938 C-5.14229264 81.26302485 -5.67061382 79.20492758 -6.18969727 77.14453125 C-6.71236839 75.11620824 -7.27036566 73.09650724 -7.87084961 71.08984375 C-10.52761329 61.488398 -10.31143328 52.12225192 -10.01879883 42.25195312 C-9.93746094 39.37361763 -9.89392587 36.49635598 -9.85351562 33.6171875 C-9.58855371 20.88298831 -8.51489163 10.0834243 0 0 Z " fill="#EAE7E0" transform="translate(1729,889)"/>
<path d="M0 0 C18.02140786 -0.07045767 36.04277938 -0.12316652 54.06429577 -0.15543652 C62.43426845 -0.17082632 70.80415495 -0.19176252 79.17407227 -0.22631836 C86.47954715 -0.25646488 93.78495956 -0.27563209 101.09049493 -0.28226548 C104.94942335 -0.28613557 108.80817321 -0.29506031 112.66704369 -0.31719017 C132.89226973 -0.42865761 153.07768313 -0.26559903 172.625 5.625 C173.47707031 5.87660889 174.32914063 6.12821777 175.20703125 6.38745117 C202.13388422 14.7324886 226.69778386 31.61917529 240.28588867 56.75170898 C254.34026836 84.10845043 254.93617611 118.21184738 245.6796875 147.234375 C235.21765578 178.04390895 212.89341629 203.22439495 184 218 C158.97623152 229.87716044 134.95394373 232.4644868 107.61201739 232.30418181 C103.81778281 232.28519634 100.02353807 232.28364761 96.22926331 232.28010559 C89.0721952 232.27084842 81.91526755 232.24632216 74.75826079 232.21605712 C66.59842868 232.18231379 58.43858923 232.16597744 50.27870452 232.15097082 C33.51905465 232.11976551 16.75954536 232.06713081 0 232 C0 230.02 0 228.04 0 226 C2.97652832 224.41167112 5.95669771 222.83029131 8.9375 221.25 C9.76830078 220.8065625 10.59910156 220.363125 11.45507812 219.90625 C26.39556526 212 26.39556526 212 30 212 C30 148.64 30 85.28 30 20 C28.35 19.67 26.7 19.34 25 19 C23.0731086 18.1612114 21.17293284 17.25953947 19.296875 16.3125 C18.2346875 15.77882813 17.1725 15.24515625 16.078125 14.6953125 C14.97984375 14.13585938 13.8815625 13.57640625 12.75 13 C11.63625 12.44054688 10.5225 11.88109375 9.375 11.3046875 C1.1541718 7.1541718 1.1541718 7.1541718 0 6 C-0.04080783 4.00041636 -0.04254356 1.99954746 0 0 Z M84 20 C84 83.36 84 146.72 84 212 C131.32731216 212.74784325 131.32731216 212.74784325 169.58984375 190.5 C179.80475588 179.90430508 186.59848409 167.44672659 190.8125 153.4375 C191.0074707 152.79014893 191.20244141 152.14279785 191.40332031 151.47583008 C194.60180431 140.03998056 195.36370037 128.57801644 195.3125 116.75 C195.31034485 116.06990875 195.3081897 115.3898175 195.30596924 114.68911743 C195.1687773 87.65794461 188.55294245 61.54335881 169.05859375 41.90625 C145.18489376 18.81762314 115.9407342 20 84 20 Z " fill="#FFFFFF" transform="translate(1457,1269)"/>
<path d="M0 0 C18.02140786 -0.07045767 36.04277938 -0.12316652 54.06429577 -0.15543652 C62.43426845 -0.17082632 70.80415495 -0.19176252 79.17407227 -0.22631836 C86.47954715 -0.25646488 93.78495956 -0.27563209 101.09049493 -0.28226548 C104.94942335 -0.28613557 108.80817321 -0.29506031 112.66704369 -0.31719017 C132.89226973 -0.42865761 153.07768313 -0.26559903 172.625 5.625 C173.47707031 5.87660889 174.32914063 6.12821777 175.20703125 6.38745117 C202.13388422 14.7324886 226.69778386 31.61917529 240.28588867 56.75170898 C254.34026836 84.10845043 254.93617611 118.21184738 245.6796875 147.234375 C235.21765578 178.04390895 212.89341629 203.22439495 184 218 C158.97623152 229.87716044 134.95394373 232.4644868 107.61201739 232.30418181 C103.81778281 232.28519634 100.02353807 232.28364761 96.22926331 232.28010559 C89.0721952 232.27084842 81.91526755 232.24632216 74.75826079 232.21605712 C66.59842868 232.18231379 58.43858923 232.16597744 50.27870452 232.15097082 C33.51905465 232.11976551 16.75954536 232.06713081 0 232 C0 230.02 0 228.04 0 226 C2.97652832 224.41167112 5.95669771 222.83029131 8.9375 221.25 C9.76830078 220.8065625 10.59910156 220.363125 11.45507812 219.90625 C26.39556526 212 26.39556526 212 30 212 C30 148.64 30 85.28 30 20 C28.35 19.67 26.7 19.34 25 19 C23.0731086 18.1612114 21.17293284 17.25953947 19.296875 16.3125 C18.2346875 15.77882813 17.1725 15.24515625 16.078125 14.6953125 C14.97984375 14.13585938 13.8815625 13.57640625 12.75 13 C11.63625 12.44054688 10.5225 11.88109375 9.375 11.3046875 C1.1541718 7.1541718 1.1541718 7.1541718 0 6 C-0.04080783 4.00041636 -0.04254356 1.99954746 0 0 Z M84 20 C84 83.36 84 146.72 84 212 C131.32731216 212.74784325 131.32731216 212.74784325 169.58984375 190.5 C179.80475588 179.90430508 186.59848409 167.44672659 190.8125 153.4375 C191.0074707 152.79014893 191.20244141 152.14279785 191.40332031 151.47583008 C194.60180431 140.03998056 195.36370037 128.57801644 195.3125 116.75 C195.31034485 116.06990875 195.3081897 115.3898175 195.30596924 114.68911743 C195.1687773 87.65794461 188.55294245 61.54335881 169.05859375 41.90625 C145.18489376 18.81762314 115.9407342 20 84 20 Z " fill="#FFFFFF" transform="translate(15,1269)"/>
<path d="M0 0 C2.84188899 3.14103519 3.1829664 4.4298044 3.375 8.625 C2.60165616 11.39287189 1.42748978 13.91283437 0.1875 16.5 C-0.13549072 17.20382812 -0.45848145 17.90765625 -0.79125977 18.6328125 C-2.96853126 23.34632433 -5.22656039 28.01999595 -7.625 32.625 C-13.1847743 32.96001204 -16.83463728 32.00584865 -21.875 29.6875 C-31.20952329 25.45090842 -40.09487729 24.08575433 -50.28125 26.16796875 C-55.37637908 28.25501201 -57.5181961 31.93396353 -59.6640625 36.859375 C-64.48354164 50.73007106 -63.79811222 66.40300512 -64.1875 80.9375 C-64.23083285 82.46810711 -64.27445099 83.99870617 -64.31835938 85.52929688 C-64.4238506 89.22777793 -64.52552066 92.92635177 -64.625 96.625 C-54.33217813 96.67975129 -44.04028798 96.69128957 -33.74738312 96.64834595 C-28.96733078 96.62974598 -24.18821721 96.62577918 -19.40820312 96.65576172 C-14.79111359 96.6841755 -10.17558839 96.67348768 -5.55857849 96.63619995 C-3.80122698 96.62877921 -2.04375814 96.63521806 -0.28651428 96.65603638 C9.33106448 97.01561667 9.33106448 97.01561667 18.16918945 93.90698242 C20.1899878 91.91562099 21.77275777 89.9585544 23.375 87.625 C24.44570917 86.38482111 25.52743801 85.15397831 26.625 83.9375 C27.18703125 83.28394531 27.7490625 82.63039063 28.328125 81.95703125 C31.4667729 78.38112897 34.70774237 74.90002908 37.96508789 71.43212891 C41.38075653 67.77880655 44.51693934 64.02370035 47.38671875 59.91796875 C49.375 58.625 49.375 58.625 58.375 58.625 C58.375 71.165 58.375 83.705 58.375 96.625 C74.215 96.625 90.055 96.625 106.375 96.625 C106.375 102.235 106.375 107.845 106.375 113.625 C90.535 113.625 74.695 113.625 58.375 113.625 C58.46573895 132.67394262 58.46573895 132.67394262 58.58398438 151.72265625 C58.63831769 159.49168058 58.68942753 167.26063259 58.72143555 175.02978516 C58.7474421 181.29334764 58.78782635 187.55666743 58.83818626 193.8200798 C58.85487278 196.2098425 58.86637591 198.59964718 58.87261391 200.98945999 C58.88223526 204.33649393 58.91027233 207.68290448 58.94262695 211.02978516 C58.94119186 212.01809326 58.93975677 213.00640137 58.9382782 214.0246582 C59.01030012 219.29197676 59.37354895 223.09488299 62.375 227.625 C64.63310858 229.34762717 64.63310858 229.34762717 67.25 230.4375 C68.51457031 231.03498047 68.51457031 231.03498047 69.8046875 231.64453125 C80.4425322 235.7024325 92.78570936 233.83994571 103.7421875 231.96484375 C105.04542969 231.79662109 105.04542969 231.79662109 106.375 231.625 C107.375 232.625 107.375 232.625 107.875 235.6875 C107.15172223 241.38331241 104.63957547 243.93138422 100.375 247.625 C84.20258679 259.67065949 65.15659158 263.60715605 45.27246094 261.390625 C31.50048028 259.279338 19.78302819 253.99180267 11.375 242.625 C8.32935682 237.24251787 7.2481622 231.71099219 7.25474548 225.58195496 C7.25268349 224.09496094 7.25268349 224.09496094 7.25057983 222.57792664 C7.25417511 221.50186661 7.25777039 220.42580658 7.26147461 219.31713867 C7.26132858 218.17524078 7.26118256 217.0333429 7.2610321 215.85684204 C7.26172832 212.08553157 7.26950715 208.31427059 7.27734375 204.54296875 C7.27920896 201.92694628 7.28063238 199.31092346 7.28163147 196.69490051 C7.28473644 190.51497222 7.29293859 184.33506167 7.30298096 178.15514117 C7.31526593 170.42699857 7.32073122 162.69885306 7.32617188 154.97070312 C7.33590448 141.18878827 7.35593788 127.40691212 7.375 113.625 C-16.385 113.625 -40.145 113.625 -64.625 113.625 C-64.625 155.535 -64.625 197.445 -64.625 240.625 C-61.655 241.615 -58.685 242.605 -55.625 243.625 C-54.0963929 244.20113597 -52.57307071 244.79217148 -51.0625 245.4140625 C-49.96228516 245.86652344 -49.96228516 245.86652344 -48.83984375 246.328125 C-48.10894531 246.63234375 -47.37804688 246.9365625 -46.625 247.25 C-45.86316406 247.56195312 -45.10132812 247.87390625 -44.31640625 248.1953125 C-38.75463051 250.49536949 -38.75463051 250.49536949 -37.625 251.625 C-37.625 253.605 -37.625 255.585 -37.625 257.625 C-70.955 257.625 -104.285 257.625 -138.625 257.625 C-138.625 255.645 -138.625 253.665 -138.625 251.625 C-126.7109375 245.66796875 -126.7109375 245.66796875 -124.61230469 244.62255859 C-122.80953586 243.71763065 -121.01738471 242.79162702 -119.2265625 241.86328125 C-116.625 240.625 -116.625 240.625 -114.625 240.625 C-114.625 198.715 -114.625 156.805 -114.625 113.625 C-123.535 113.625 -132.445 113.625 -141.625 113.625 C-141.625 108.015 -141.625 102.405 -141.625 96.625 C-132.715 96.625 -123.805 96.625 -114.625 96.625 C-114.728125 94.129375 -114.83125 91.63375 -114.9375 89.0625 C-115.2427085 63.46190622 -97.10114657 40.07316115 -80.26171875 22.296875 C-61.17830208 2.95901277 -26.43931204 -19.31382369 0 0 Z " fill="#FFFFFF" transform="translate(2140.625,1243.375)"/>
<path d="M0 0 C0.33965474 2.18652739 0.67142477 4.37428025 1 6.5625 C1.185625 7.78066406 1.37125 8.99882813 1.5625 10.25390625 C1.98555077 13.87627848 2.07501425 17.35712046 2 21 C4.75268612 19.18902229 7.48341674 17.38223376 10.1328125 15.421875 C26.81518731 3.19914494 43.42585061 -1.8226994 64 0 C73.20103749 1.59358175 80.49498732 5.57349001 88 11 C89.03125 11.721875 90.0625 12.44375 91.125 13.1875 C105.49662139 25.98528389 113.09895321 45.91683168 114.22314453 64.73535156 C115.40175896 92.4454268 112.30949689 116.30804471 95 139 C94.43539062 139.75023437 93.87078125 140.50046875 93.2890625 141.2734375 C81.02568408 156.40824111 61.07989163 165.81396217 42 168 C38.29078248 168.16375358 34.58749969 168.19022889 30.875 168.1875 C29.85760742 168.18741943 28.84021484 168.18733887 27.79199219 168.18725586 C19.34821723 168.12336938 11.07335283 167.69111761 3 165 C3 185.79 3 206.58 3 228 C4.65 228.33 6.3 228.66 8 229 C9.77047112 229.63610546 11.5255938 230.31606501 13.265625 231.03125 C14.72355469 231.62873047 14.72355469 231.62873047 16.2109375 232.23828125 C17.21382812 232.65464844 18.21671875 233.07101562 19.25 233.5 C20.26835938 233.91636719 21.28671875 234.33273437 22.3359375 234.76171875 C29.86277636 237.86277636 29.86277636 237.86277636 31 239 C31 240.98 31 242.96 31 245 C-2.66 245 -36.32 245 -71 245 C-71 243.02 -71 241.04 -71 239 C-68.69222066 237.7199274 -66.37932382 236.45102092 -64.0625 235.1875 C-63.42248047 234.83107422 -62.78246094 234.47464844 -62.12304688 234.10742188 C-58.57051056 232.18092208 -55.08973009 230.61832054 -51.23999023 229.37231445 C-50.44221664 229.11231155 -49.64444305 228.85230865 -48.82249451 228.58442688 C-47.92035973 228.29513557 -47.92035973 228.29513557 -47 228 C-46.82678149 204.05168879 -46.72806587 180.10406767 -46.71759319 156.1551075 C-46.71100077 145.0345851 -46.68020058 133.91512147 -46.59204102 122.79492188 C-46.51524537 113.10033693 -46.4842476 103.40686113 -46.50781661 93.71198165 C-46.51870481 88.57993172 -46.50695251 83.45022374 -46.44031334 78.3185463 C-46.37824336 73.48292814 -46.37765082 68.65110848 -46.4231987 63.81534386 C-46.42921711 62.0456622 -46.413214 60.27573983 -46.37295341 58.50650597 C-45.93818259 49.44754431 -45.93818259 49.44754431 -49.26487374 41.32438803 C-52.76454158 37.86629065 -56.76698206 35.46097562 -61 33 C-62.78304202 31.74635364 -64.55680132 30.4791618 -66.3125 29.1875 C-67.03050781 28.68605469 -67.74851562 28.18460938 -68.48828125 27.66796875 C-70.52907542 25.41623978 -70.11628542 23.94860157 -70 21 C-62.80219571 18.55705842 -55.60433187 16.11429238 -48.40639305 13.67174721 C-45.06370568 12.53743517 -41.72103844 11.40306386 -38.37841797 10.26855469 C-34.53098522 8.96271158 -30.68346356 7.65713063 -26.8359375 6.3515625 C-25.64197357 5.94628326 -24.44800964 5.54100403 -23.21786499 5.1234436 C-22.09715607 4.74320038 -20.97644714 4.36295715 -19.82177734 3.97119141 C-18.84026703 3.63809967 -17.85875671 3.30500793 -16.84750366 2.96182251 C-15.43798935 2.48572037 -15.43798935 2.48572037 -14 2 C-12.93810455 1.6333725 -11.87620911 1.266745 -10.78213501 0.88900757 C-7.00073355 -0.31930709 -3.94610026 -0.13607242 0 0 Z M3 36 C2.74488629 49.16052246 2.54955755 62.32045487 2.43006611 75.4829483 C2.37270818 81.59531617 2.29494463 87.70599001 2.17016602 93.81738281 C2.05044997 99.71789626 1.98483475 105.61678302 1.95635033 111.51841736 C1.93605854 113.76726392 1.89642948 116.01602348 1.83696938 118.26417542 C1.06685137 130.33253658 1.06685137 130.33253658 5.30453491 141.13354492 C13.26805755 147.18344584 24.06028304 150.104413 34 149 C43.55304377 146.54231287 49.84044595 142.6749048 55.1875 134.375 C62.72820465 120.94249145 64.36414814 106.35537881 64.31567383 91.19189453 C64.31251367 89.13390006 64.33607732 87.0773496 64.36132812 85.01953125 C64.44373728 67.69368515 60.89924511 52.17025986 48.75 39.375 C41.49808169 32.26668403 34.22217301 29.71904957 24.12817383 29.60180664 C16.41235949 29.73396156 9.83169183 32.58415408 3 36 Z " fill="#FFFFFF" transform="translate(750,1337)"/>
<path d="M0 0 C0.33965474 2.18652739 0.67142477 4.37428025 1 6.5625 C1.185625 7.78066406 1.37125 8.99882813 1.5625 10.25390625 C1.98555077 13.87627848 2.07501425 17.35712046 2 21 C4.75268612 19.18902229 7.48341674 17.38223376 10.1328125 15.421875 C26.81518731 3.19914494 43.42585061 -1.8226994 64 0 C73.20103749 1.59358175 80.49498732 5.57349001 88 11 C89.03125 11.721875 90.0625 12.44375 91.125 13.1875 C105.49662139 25.98528389 113.09895321 45.91683168 114.22314453 64.73535156 C115.40175896 92.4454268 112.30949689 116.30804471 95 139 C94.43539062 139.75023437 93.87078125 140.50046875 93.2890625 141.2734375 C81.02568408 156.40824111 61.07989163 165.81396217 42 168 C38.29078248 168.16375358 34.58749969 168.19022889 30.875 168.1875 C29.85760742 168.18741943 28.84021484 168.18733887 27.79199219 168.18725586 C19.34821723 168.12336938 11.07335283 167.69111761 3 165 C3 185.79 3 206.58 3 228 C4.65 228.33 6.3 228.66 8 229 C9.77047112 229.63610546 11.5255938 230.31606501 13.265625 231.03125 C14.72355469 231.62873047 14.72355469 231.62873047 16.2109375 232.23828125 C17.21382812 232.65464844 18.21671875 233.07101562 19.25 233.5 C20.26835938 233.91636719 21.28671875 234.33273437 22.3359375 234.76171875 C29.86277636 237.86277636 29.86277636 237.86277636 31 239 C31 240.98 31 242.96 31 245 C-2.66 245 -36.32 245 -71 245 C-71 243.02 -71 241.04 -71 239 C-68.69222066 237.7199274 -66.37932382 236.45102092 -64.0625 235.1875 C-63.42248047 234.83107422 -62.78246094 234.47464844 -62.12304688 234.10742188 C-58.57051056 232.18092208 -55.08973009 230.61832054 -51.23999023 229.37231445 C-50.44221664 229.11231155 -49.64444305 228.85230865 -48.82249451 228.58442688 C-47.92035973 228.29513557 -47.92035973 228.29513557 -47 228 C-46.82678149 204.05168879 -46.72806587 180.10406767 -46.71759319 156.1551075 C-46.71100077 145.0345851 -46.68020058 133.91512147 -46.59204102 122.79492188 C-46.51524537 113.10033693 -46.4842476 103.40686113 -46.50781661 93.71198165 C-46.51870481 88.57993172 -46.50695251 83.45022374 -46.44031334 78.3185463 C-46.37824336 73.48292814 -46.37765082 68.65110848 -46.4231987 63.81534386 C-46.42921711 62.0456622 -46.413214 60.27573983 -46.37295341 58.50650597 C-45.93818259 49.44754431 -45.93818259 49.44754431 -49.26487374 41.32438803 C-52.76454158 37.86629065 -56.76698206 35.46097562 -61 33 C-62.78304202 31.74635364 -64.55680132 30.4791618 -66.3125 29.1875 C-67.03050781 28.68605469 -67.74851562 28.18460938 -68.48828125 27.66796875 C-70.52907542 25.41623978 -70.11628542 23.94860157 -70 21 C-62.80219571 18.55705842 -55.60433187 16.11429238 -48.40639305 13.67174721 C-45.06370568 12.53743517 -41.72103844 11.40306386 -38.37841797 10.26855469 C-34.53098522 8.96271158 -30.68346356 7.65713063 -26.8359375 6.3515625 C-25.64197357 5.94628326 -24.44800964 5.54100403 -23.21786499 5.1234436 C-22.09715607 4.74320038 -20.97644714 4.36295715 -19.82177734 3.97119141 C-18.84026703 3.63809967 -17.85875671 3.30500793 -16.84750366 2.96182251 C-15.43798935 2.48572037 -15.43798935 2.48572037 -14 2 C-12.93810455 1.6333725 -11.87620911 1.266745 -10.78213501 0.88900757 C-7.00073355 -0.31930709 -3.94610026 -0.13607242 0 0 Z M3 36 C2.74488629 49.16052246 2.54955755 62.32045487 2.43006611 75.4829483 C2.37270818 81.59531617 2.29494463 87.70599001 2.17016602 93.81738281 C2.05044997 99.71789626 1.98483475 105.61678302 1.95635033 111.51841736 C1.93605854 113.76726392 1.89642948 116.01602348 1.83696938 118.26417542 C1.06685137 130.33253658 1.06685137 130.33253658 5.30453491 141.13354492 C13.26805755 147.18344584 24.06028304 150.104413 34 149 C43.55304377 146.54231287 49.84044595 142.6749048 55.1875 134.375 C62.72820465 120.94249145 64.36414814 106.35537881 64.31567383 91.19189453 C64.31251367 89.13390006 64.33607732 87.0773496 64.36132812 85.01953125 C64.44373728 67.69368515 60.89924511 52.17025986 48.75 39.375 C41.49808169 32.26668403 34.22217301 29.71904957 24.12817383 29.60180664 C16.41235949 29.73396156 9.83169183 32.58415408 3 36 Z " fill="#FFFFFF" transform="translate(543,1337)"/>
<path d="M0 0 C9.22016919 7.87340291 13.52783529 17.34576688 14.625 29.25 C14.75635852 32.47517902 14.75881858 35.69556822 14.75097656 38.9230957 C14.75377876 40.32213387 14.75377876 40.32213387 14.75663757 41.74943542 C14.76062007 43.76060525 14.76271442 45.77177953 14.76309967 47.78295326 C14.76653428 52.05739444 14.78790841 56.33168606 14.80833054 60.60607433 C14.8462989 68.55324172 14.8776039 76.50024108 14.87548828 84.44750977 C14.87470349 89.98770958 14.89795253 95.52734997 14.9373703 101.06740379 C14.94785569 103.17775142 14.94933577 105.2881634 14.94171906 107.39852333 C14.93214938 110.34093136 14.95317524 113.28162421 14.98144531 116.22387695 C14.97124863 117.09819366 14.96105194 117.97251038 14.95054626 118.87332153 C14.98926528 121.11193992 15.05913069 123.08384823 15.625 125.25 C19.55412502 128.54478489 23.69293103 129.30982144 28.69921875 129.53125 C29.44880859 129.56863281 30.19839844 129.60601563 30.97070312 129.64453125 C32.54359616 129.71537047 34.11651335 129.7856752 35.68945312 129.85546875 C41.52289724 130.14789724 41.52289724 130.14789724 42.625 131.25 C43.24650917 134.43523452 43.13707215 136.46471862 41.34375 139.21484375 C33.67538128 148.29488944 25.36561661 153.35688785 13.625 155.25 C0.34471782 156.04733978 -12.93579757 155.87220647 -23.6640625 146.88671875 C-28.292367 142.45918545 -31.77488947 138.17247398 -34.375 132.25 C-35.24125 133.03375 -36.1075 133.8175 -37 134.625 C-51.69246761 147.1210179 -66.80750935 156.01278915 -86.7421875 155.5 C-99.42701563 154.29550593 -110.77038577 149.88791943 -119.375 140.25 C-127.11422178 128.75902351 -127.26416371 115.51693193 -125.375 102.25 C-123.38968026 92.50279765 -117.92392976 85.33114834 -109.953125 79.46875 C-107.47907849 77.92444071 -104.97915801 76.56198828 -102.375 75.25 C-101.57964844 74.83363281 -100.78429687 74.41726563 -99.96484375 73.98828125 C-85.78569537 67.041156 -70.1347786 63.58140479 -54.875 59.875 C-53.75928619 59.60325455 -53.75928619 59.60325455 -52.62103271 59.32601929 C-50.48807574 58.80880769 -48.3538027 58.29754671 -46.21875 57.7890625 C-44.97287109 57.49209473 -43.72699219 57.19512695 -42.44335938 56.88916016 C-39.375 56.25 -39.375 56.25 -36.375 56.25 C-36.42736619 51.79074799 -36.52256015 47.33336058 -36.625 42.875 C-36.63917969 41.62332031 -36.65335937 40.37164063 -36.66796875 39.08203125 C-36.93082634 29.04087125 -38.57437777 20.28099956 -45.6015625 12.71875 C-52.0334496 7.39190077 -60.22380287 5.71549527 -68.375 6.25 C-73.2303338 7.20158548 -77.19581795 8.1592566 -80.875 11.5625 C-84.52882114 18.10892954 -84.74262428 24.22851861 -84.9375 31.5625 C-84.99714555 33.55872228 -85.06072581 35.55483225 -85.12890625 37.55078125 C-85.15283447 38.42903564 -85.1767627 39.30729004 -85.20141602 40.2121582 C-85.375 42.25 -85.375 42.25 -86.375 43.25 C-90.6187466 43.50464191 -94.87452677 43.43523429 -99.125 43.4375 C-100.31867188 43.44974609 -101.51234375 43.46199219 -102.7421875 43.47460938 C-104.47082031 43.47750977 -104.47082031 43.47750977 -106.234375 43.48046875 C-107.29108398 43.48457764 -108.34779297 43.48868652 -109.43652344 43.49291992 C-113.58893029 43.14964601 -116.40924651 42.34896087 -119.1875 39.1875 C-121.29932972 33.96350016 -121.03646584 28.68589541 -119.4375 23.3125 C-112.78581435 7.90377864 -94.24696062 -1.9210524 -79.46142578 -7.93652344 C-55.27818451 -17.36532755 -21.33704251 -15.95529588 0 0 Z M-72.4375 85.625 C-78.22936575 92.12319084 -78.88716812 98.65378608 -78.66015625 107.19140625 C-78.04465353 113.79330526 -75.51117539 117.94994618 -70.375 122.25 C-62.53675417 127.35397403 -54.05961286 126.50412637 -45.234375 124.91796875 C-42.23110621 124.21638547 -39.30086026 123.22528675 -36.375 122.25 C-36.375 105.42 -36.375 88.59 -36.375 71.25 C-48.2110704 71.25 -63.83850932 77.75897942 -72.4375 85.625 Z " fill="#FFFFFF" transform="translate(419.375,1349.75)"/>
<path d="M0 0 C13.88649648 11.74364831 21.29188091 29.8937782 23.1484375 47.77734375 C23.42479762 52.84097428 23.5224327 57.93062645 23.26953125 62.99609375 C21.3372866 64.9283384 18.43342736 64.11627813 15.86244202 64.12051392 C14.94031418 64.11691864 14.01818634 64.11332336 13.06811523 64.10961914 C11.61949097 64.10983818 11.61949097 64.10983818 10.14160156 64.11006165 C6.93292026 64.10936209 3.72429622 64.10156772 0.515625 64.09375 C-1.70254993 64.09188597 -3.92072527 64.090462 -6.13890076 64.08946228 C-11.98986946 64.08563591 -17.84081352 64.07580461 -23.69177246 64.0647583 C-29.65714179 64.05454674 -35.62251508 64.04996521 -41.58789062 64.04492188 C-53.30209419 64.03418244 -65.01627942 64.0171046 -76.73046875 63.99609375 C-76.286381 67.02475333 -75.83328473 70.05160876 -75.375 73.078125 C-75.18943542 74.3533905 -75.18943542 74.3533905 -75.00012207 75.65441895 C-73.04844513 88.40639948 -67.88520929 99.44515253 -57.6875 107.62109375 C-42.89059835 118.01732006 -23.90964538 118.87318948 -6.51220703 116.22070312 C1.32970211 114.82848717 8.57714793 112.26998048 15.94140625 109.30078125 C18.41153377 108.33244487 20.68409052 107.53146279 23.26953125 106.99609375 C24.25936981 115.62182978 21.48615253 120.24999189 16.26953125 126.99609375 C2.97560517 143.50254251 -14.45867471 154.19651569 -35.73046875 156.99609375 C-60.77295687 158.3800419 -83.39734856 154.43114902 -102.98046875 137.68359375 C-116.9926155 124.53612062 -124.30341445 105.80133216 -124.96875 86.765625 C-125.51585642 57.59970043 -118.73200028 33.62639184 -98.48046875 12.18359375 C-73.57050636 -11.67235048 -29.29600339 -21.50050034 0 0 Z M-63.41796875 13.55859375 C-71.08036514 22.98386494 -74.73046875 35.01655066 -74.73046875 46.99609375 C-55.59046875 46.99609375 -36.45046875 46.99609375 -16.73046875 46.99609375 C-19.37193214 26.77019014 -19.37193214 26.77019014 -30.765625 10.44921875 C-31.76916016 9.85367187 -31.76916016 9.85367187 -32.79296875 9.24609375 C-33.46457031 8.83875 -34.13617187 8.43140625 -34.828125 8.01171875 C-44.83657232 2.66839985 -55.97548404 5.7807181 -63.41796875 13.55859375 Z " fill="#FFFFFF" transform="translate(1018.73046875,1348.00390625)"/>
<path d="M0 0 C1.77615759 3.55231518 1.68243408 7.64641332 2.0625 11.5625 C2.19881836 12.86670898 2.19881836 12.86670898 2.33789062 14.19726562 C2.89628987 19.82744148 3.08615255 25.34264945 3 31 C3.66 31 4.32 31 5 31 C5.23332031 30.30648438 5.46664063 29.61296875 5.70703125 28.8984375 C7.2560654 25.42598028 9.35216712 22.59281887 11.6875 19.625 C12.13738281 19.05136719 12.58726563 18.47773437 13.05078125 17.88671875 C19.92583909 9.22414587 26.29270493 3.56909836 37 0 C47.02326912 -0.75764488 57.13232945 -0.54890866 65.81640625 5.203125 C68.73057489 7.82670702 69.52792305 10.21200909 70 14 C68.54437278 23.51616297 63.54281965 33.08956592 60 42 C54.49638674 41.53574647 49.57427619 40.7083511 44.3125 38.9375 C34.69380533 36.10175092 24.9777573 35.08592557 15.8359375 39.84375 C13.39814247 41.37904219 11.1946732 43.13785305 9 45 C8.34 45 7.68 45 7 45 C5.38290332 47.85932142 4.74674114 49.92365232 4.7215271 53.20147705 C4.71036362 54.03156281 4.69920013 54.86164856 4.68769836 55.71688843 C4.68553818 56.6188797 4.68337799 57.52087097 4.68115234 58.45019531 C4.67110672 59.40662933 4.6610611 60.36306335 4.65071106 61.34848022 C4.61983182 64.50835573 4.60283061 67.66814632 4.5859375 70.828125 C4.56722968 73.01959974 4.54765656 75.21106725 4.5272522 77.40252686 C4.47588428 83.16955302 4.4362834 88.93660255 4.39910889 94.70373535 C4.35909852 100.58900759 4.30799263 106.47418224 4.2578125 112.359375 C4.16099799 123.90618149 4.07661081 135.45304303 4 147 C4.66780991 147.19580658 5.33561981 147.39161316 6.02366638 147.59335327 C6.90974075 147.85564728 7.79581512 148.11794128 8.70874023 148.38818359 C9.58280014 148.64586517 10.45686005 148.90354675 11.35740662 149.16903687 C15.3566599 150.42660152 19.20135689 151.99925553 23.0625 153.625 C24.19848633 154.09292969 24.19848633 154.09292969 25.35742188 154.5703125 C30.86029906 156.86029906 30.86029906 156.86029906 32 158 C32 159.98 32 161.96 32 164 C-1.66 164 -35.32 164 -70 164 C-70 162.02 -70 160.04 -70 158 C-66.89779023 156.35045833 -63.79290789 154.7060119 -60.6875 153.0625 C-59.80642578 152.59392578 -58.92535156 152.12535156 -58.01757812 151.64257812 C-57.17001953 151.19462891 -56.32246094 150.74667969 -55.44921875 150.28515625 C-54.66893311 149.87144775 -53.88864746 149.45773926 -53.0847168 149.03149414 C-51 148 -51 148 -48 147 C-47.67 112.35 -47.34 77.7 -47 42 C-48.32 41.34 -49.64 40.68 -51 40 C-54.15301708 38.0163912 -57.19648369 35.8826903 -60.25 33.75 C-61.09046875 33.18925781 -61.9309375 32.62851563 -62.796875 32.05078125 C-63.5909375 31.49261719 -64.385 30.93445312 -65.203125 30.359375 C-65.93176758 29.85889648 -66.66041016 29.35841797 -67.41113281 28.84277344 C-69 27 -69 27 -69.23730469 23.79003906 C-69.15899414 22.86932617 -69.08068359 21.94861328 -69 21 C-66.25656122 20.06104924 -63.5130725 19.12224502 -60.76953125 18.18359375 C-59.48829124 17.74523445 -59.48829124 17.74523445 -58.1811676 17.29801941 C-50.69019 14.73593547 -43.19627878 12.18250272 -35.70184326 9.6305542 C-30.74445535 7.94100434 -25.79270059 6.23704405 -20.84765625 4.51171875 C-19.02345453 3.88276312 -17.19923794 3.2538506 -15.375 2.625 C-14.59229736 2.3458374 -13.80959473 2.0666748 -13.00317383 1.77905273 C-8.42666324 0.21642982 -4.76331681 -0.26254502 0 0 Z " fill="#FFFFFF" transform="translate(1805,1337)"/>
<path d="M0 0 C1.77615759 3.55231518 1.68243408 7.64641332 2.0625 11.5625 C2.19881836 12.86670898 2.19881836 12.86670898 2.33789062 14.19726562 C2.89628987 19.82744148 3.08615255 25.34264945 3 31 C3.66 31 4.32 31 5 31 C5.23332031 30.30648438 5.46664063 29.61296875 5.70703125 28.8984375 C7.2560654 25.42598028 9.35216712 22.59281887 11.6875 19.625 C12.13738281 19.05136719 12.58726563 18.47773437 13.05078125 17.88671875 C19.92583909 9.22414587 26.29270493 3.56909836 37 0 C47.02326912 -0.75764488 57.13232945 -0.54890866 65.81640625 5.203125 C68.73057489 7.82670702 69.52792305 10.21200909 70 14 C68.54437278 23.51616297 63.54281965 33.08956592 60 42 C54.49638674 41.53574647 49.57427619 40.7083511 44.3125 38.9375 C34.69380533 36.10175092 24.9777573 35.08592557 15.8359375 39.84375 C13.39814247 41.37904219 11.1946732 43.13785305 9 45 C8.34 45 7.68 45 7 45 C5.38290332 47.85932142 4.74674114 49.92365232 4.7215271 53.20147705 C4.71036362 54.03156281 4.69920013 54.86164856 4.68769836 55.71688843 C4.68553818 56.6188797 4.68337799 57.52087097 4.68115234 58.45019531 C4.67110672 59.40662933 4.6610611 60.36306335 4.65071106 61.34848022 C4.61983182 64.50835573 4.60283061 67.66814632 4.5859375 70.828125 C4.56722968 73.01959974 4.54765656 75.21106725 4.5272522 77.40252686 C4.47588428 83.16955302 4.4362834 88.93660255 4.39910889 94.70373535 C4.35909852 100.58900759 4.30799263 106.47418224 4.2578125 112.359375 C4.16099799 123.90618149 4.07661081 135.45304303 4 147 C4.66780991 147.19580658 5.33561981 147.39161316 6.02366638 147.59335327 C6.90974075 147.85564728 7.79581512 148.11794128 8.70874023 148.38818359 C9.58280014 148.64586517 10.45686005 148.90354675 11.35740662 149.16903687 C15.3566599 150.42660152 19.20135689 151.99925553 23.0625 153.625 C24.19848633 154.09292969 24.19848633 154.09292969 25.35742188 154.5703125 C30.86029906 156.86029906 30.86029906 156.86029906 32 158 C32 159.98 32 161.96 32 164 C-1.66 164 -35.32 164 -70 164 C-70 162.02 -70 160.04 -70 158 C-66.89779023 156.35045833 -63.79290789 154.7060119 -60.6875 153.0625 C-59.80642578 152.59392578 -58.92535156 152.12535156 -58.01757812 151.64257812 C-57.17001953 151.19462891 -56.32246094 150.74667969 -55.44921875 150.28515625 C-54.66893311 149.87144775 -53.88864746 149.45773926 -53.0847168 149.03149414 C-51 148 -51 148 -48 147 C-47.67 112.35 -47.34 77.7 -47 42 C-48.32 41.34 -49.64 40.68 -51 40 C-54.15301708 38.0163912 -57.19648369 35.8826903 -60.25 33.75 C-61.09046875 33.18925781 -61.9309375 32.62851563 -62.796875 32.05078125 C-63.5909375 31.49261719 -64.385 30.93445312 -65.203125 30.359375 C-65.93176758 29.85889648 -66.66041016 29.35841797 -67.41113281 28.84277344 C-69 27 -69 27 -69.23730469 23.79003906 C-69.15899414 22.86932617 -69.08068359 21.94861328 -69 21 C-66.25656122 20.06104924 -63.5130725 19.12224502 -60.76953125 18.18359375 C-59.48829124 17.74523445 -59.48829124 17.74523445 -58.1811676 17.29801941 C-50.69019 14.73593547 -43.19627878 12.18250272 -35.70184326 9.6305542 C-30.74445535 7.94100434 -25.79270059 6.23704405 -20.84765625 4.51171875 C-19.02345453 3.88276312 -17.19923794 3.2538506 -15.375 2.625 C-14.59229736 2.3458374 -13.80959473 2.0666748 -13.00317383 1.77905273 C-8.42666324 0.21642982 -4.76331681 -0.26254502 0 0 Z " fill="#FFFFFF" transform="translate(1286,1337)"/>
<path d="M0 0 C1.77615759 3.55231518 1.68243408 7.64641332 2.0625 11.5625 C2.19881836 12.86670898 2.19881836 12.86670898 2.33789062 14.19726562 C2.89628987 19.82744148 3.08615255 25.34264945 3 31 C3.66 31 4.32 31 5 31 C5.23332031 30.30648438 5.46664063 29.61296875 5.70703125 28.8984375 C7.2560654 25.42598028 9.35216712 22.59281887 11.6875 19.625 C12.13738281 19.05136719 12.58726563 18.47773437 13.05078125 17.88671875 C19.92583909 9.22414587 26.29270493 3.56909836 37 0 C47.02326912 -0.75764488 57.13232945 -0.54890866 65.81640625 5.203125 C68.73057489 7.82670702 69.52792305 10.21200909 70 14 C68.54437278 23.51616297 63.54281965 33.08956592 60 42 C54.49638674 41.53574647 49.57427619 40.7083511 44.3125 38.9375 C34.69380533 36.10175092 24.9777573 35.08592557 15.8359375 39.84375 C13.39814247 41.37904219 11.1946732 43.13785305 9 45 C8.34 45 7.68 45 7 45 C5.38290332 47.85932142 4.74674114 49.92365232 4.7215271 53.20147705 C4.71036362 54.03156281 4.69920013 54.86164856 4.68769836 55.71688843 C4.68553818 56.6188797 4.68337799 57.52087097 4.68115234 58.45019531 C4.67110672 59.40662933 4.6610611 60.36306335 4.65071106 61.34848022 C4.61983182 64.50835573 4.60283061 67.66814632 4.5859375 70.828125 C4.56722968 73.01959974 4.54765656 75.21106725 4.5272522 77.40252686 C4.47588428 83.16955302 4.4362834 88.93660255 4.39910889 94.70373535 C4.35909852 100.58900759 4.30799263 106.47418224 4.2578125 112.359375 C4.16099799 123.90618149 4.07661081 135.45304303 4 147 C4.66780991 147.19580658 5.33561981 147.39161316 6.02366638 147.59335327 C6.90974075 147.85564728 7.79581512 148.11794128 8.70874023 148.38818359 C9.58280014 148.64586517 10.45686005 148.90354675 11.35740662 149.16903687 C15.3566599 150.42660152 19.20135689 151.99925553 23.0625 153.625 C24.19848633 154.09292969 24.19848633 154.09292969 25.35742188 154.5703125 C30.86029906 156.86029906 30.86029906 156.86029906 32 158 C32 159.98 32 161.96 32 164 C-1.66 164 -35.32 164 -70 164 C-70 162.02 -70 160.04 -70 158 C-66.89779023 156.35045833 -63.79290789 154.7060119 -60.6875 153.0625 C-59.80642578 152.59392578 -58.92535156 152.12535156 -58.01757812 151.64257812 C-57.17001953 151.19462891 -56.32246094 150.74667969 -55.44921875 150.28515625 C-54.66893311 149.87144775 -53.88864746 149.45773926 -53.0847168 149.03149414 C-51 148 -51 148 -48 147 C-47.67 112.35 -47.34 77.7 -47 42 C-48.32 41.34 -49.64 40.68 -51 40 C-54.15301708 38.0163912 -57.19648369 35.8826903 -60.25 33.75 C-61.09046875 33.18925781 -61.9309375 32.62851563 -62.796875 32.05078125 C-63.5909375 31.49261719 -64.385 30.93445312 -65.203125 30.359375 C-65.93176758 29.85889648 -66.66041016 29.35841797 -67.41113281 28.84277344 C-69 27 -69 27 -69.23730469 23.79003906 C-69.15899414 22.86932617 -69.08068359 21.94861328 -69 21 C-66.25656122 20.06104924 -63.5130725 19.12224502 -60.76953125 18.18359375 C-59.48829124 17.74523445 -59.48829124 17.74523445 -58.1811676 17.29801941 C-50.69019 14.73593547 -43.19627878 12.18250272 -35.70184326 9.6305542 C-30.74445535 7.94100434 -25.79270059 6.23704405 -20.84765625 4.51171875 C-19.02345453 3.88276312 -17.19923794 3.2538506 -15.375 2.625 C-14.59229736 2.3458374 -13.80959473 2.0666748 -13.00317383 1.77905273 C-8.42666324 0.21642982 -4.76331681 -0.26254502 0 0 Z " fill="#FFFFFF" transform="translate(1136,1337)"/>
<path d="M0 0 C0 48.51 0 97.02 0 147 C1.65 147.66 3.3 148.32 5 149 C6.2554296 149.61547833 7.5011317 150.25134821 8.734375 150.91015625 C9.71857422 151.43512695 9.71857422 151.43512695 10.72265625 151.97070312 C11.72619141 152.51114258 11.72619141 152.51114258 12.75 153.0625 C13.43449219 153.42666016 14.11898438 153.79082031 14.82421875 154.16601562 C19.86732076 156.86732076 19.86732076 156.86732076 21 158 C21 159.98 21 161.96 21 164 C-10.35 164 -41.7 164 -74 164 C-74 162.02 -74 160.04 -74 158 C-62.0859375 152.04296875 -62.0859375 152.04296875 -59.98730469 150.99755859 C-58.18453586 150.09263065 -56.39238471 149.16662702 -54.6015625 148.23828125 C-52 147 -52 147 -50 147 C-49.75937564 133.38660317 -49.60599203 119.77522974 -49.56215668 106.15969467 C-49.53909514 99.83617838 -49.48666644 93.51582114 -49.36572266 87.19335938 C-49.24996867 81.08450875 -49.21318881 74.9796936 -49.2297821 68.86981964 C-49.22247955 66.54612874 -49.18732355 64.22234383 -49.12312317 61.8995285 C-48.40904979 49.80982233 -48.40904979 49.80982233 -52.55923462 38.86213684 C-56.81745342 34.63848382 -61.74809092 31.80609574 -67 29 C-69.14530722 27.76277405 -71.01872311 26.5076401 -73 25 C-73.375 21.75 -73.375 21.75 -73 19 C-59.01625366 14.6358418 -44.97141016 10.47152537 -30.90301514 6.38928223 C-29.01605656 5.84004952 -27.13017697 5.28709555 -25.24542236 4.73034668 C-22.55323641 3.93613729 -19.85732664 3.15599494 -17.16015625 2.37890625 C-15.9533445 2.01844963 -15.9533445 2.01844963 -14.72215271 1.65071106 C-13.57203453 1.32389595 -13.57203453 1.32389595 -12.39868164 0.99047852 C-11.73969376 0.79841324 -11.08070587 0.60634796 -10.40174866 0.40846252 C-6.98094484 -0.17330949 -3.46992182 0 0 0 Z " fill="#FFFFFF" transform="translate(1958,1337)"/>
<path d="M0 0 C5.97845517 5.28631858 9.52118699 10.25084301 10.3359375 18.33203125 C10.43154165 26.85036081 10.02792836 33.44630223 4.234375 39.99609375 C-1.87019903 45.77621207 -7.51346603 48.09534004 -15.875 48.4375 C-22.81569449 48.2186887 -28.74216168 46.83370465 -34.0703125 42.19921875 C-40.95218792 34.78464586 -42.65511403 28.53368725 -42.41015625 18.51171875 C-41.60334299 11.60386049 -38.74327674 6.30518965 -33.6875 1.5625 C-23.90066561 -5.85113206 -10.5036903 -6.60886554 0 0 Z " fill="#FFFFFF" transform="translate(1948,1255)"/>
</svg>
