<svg xmlns="http://www.w3.org/2000/svg" width="1280" height="853" viewBox="0 0 1280 853" version="1.1"><path d="" stroke="none" fill="#0c0c0c" fill-rule="evenodd"/><path d="M 856 1.090 C 854.625 1.645, 851.250 4.302, 848.500 6.995 C 843.920 11.479, 842.660 12.109, 833.500 14.493 C 819.198 18.216, 811.449 20.861, 808.804 22.923 C 807.537 23.911, 804.250 25.040, 801.500 25.432 C 795.532 26.283, 787.982 29.552, 782.034 33.860 C 779.525 35.678, 776.467 37, 774.772 37 C 769.387 37, 722.441 64.957, 712.543 74.058 C 710.319 76.103, 706.840 78.467, 704.810 79.312 C 702.781 80.156, 699.181 82.631, 696.810 84.812 C 694.440 86.992, 690.915 89.435, 688.977 90.242 C 683.915 92.349, 674.669 100.253, 657.162 117.441 C 626.762 147.287, 610.439 169.895, 593.582 205.500 C 588.991 215.196, 580.365 228.293, 575.451 233.025 C 568.536 239.686, 567.099 248.645, 571.390 258.347 C 577.237 271.568, 591.509 280.960, 605.800 280.989 C 614.530 281.007, 618.440 278.064, 623.500 267.665 L 626.500 261.500 636.343 258.257 C 641.757 256.473, 648.957 254.564, 652.343 254.014 C 660.508 252.689, 687.881 252.725, 697.579 254.074 C 721.474 257.398, 750.987 267.987, 772.278 280.877 C 785.515 288.891, 790.730 295.910, 793.037 308.818 C 794.740 318.346, 792.618 327.777, 786.372 338.448 C 781.239 347.217, 781.537 348.471, 788.500 347.415 C 797.301 346.080, 805.357 339.290, 810.347 329 C 813.440 322.623, 813.500 322.226, 813.500 308 C 813.500 300.025, 813.111 290.800, 812.635 287.500 C 811.870 282.194, 812.005 281.211, 813.802 279 L 815.834 276.500 839.709 276.500 C 860.881 276.500, 863.891 276.299, 866.292 274.727 C 871.387 271.391, 869.522 269.121, 855 260.981 C 834.276 249.366, 813.812 232.351, 809.883 223.468 C 807.258 217.534, 807.014 210.154, 809.325 206.626 C 811.388 203.478, 817.129 200.419, 823.664 198.987 C 826.324 198.404, 829.346 197.669, 830.379 197.355 C 832.354 196.754, 832.360 197.475, 830.447 205.236 C 829.690 208.307, 830.669 215, 831.875 215 C 832.306 215, 836.242 211.512, 840.621 207.250 C 849.327 198.776, 857.452 193.907, 866 192.043 C 869.025 191.384, 872.138 190.640, 872.917 190.389 C 877.283 188.988, 864.555 184.360, 853.741 183.417 C 847.284 182.854, 844.681 182.119, 841.108 179.854 C 838.633 178.284, 836.022 177, 835.304 177 C 833.233 177, 829.772 181.019, 830.254 182.864 C 830.912 185.381, 818.581 185.220, 814.799 182.661 C 811.645 180.528, 808 173.553, 808 169.652 C 808 163.226, 814.911 154.637, 823.681 150.163 C 832.099 145.868, 849.697 143, 867.627 143 C 879.352 143, 883.288 146.337, 878.793 152.469 C 876.432 155.689, 874.646 164, 876.314 164 C 876.863 164, 878.814 162.854, 880.650 161.453 C 889.022 155.068, 908.777 148.085, 918.910 147.930 C 921.434 147.891, 924.400 147.488, 925.500 147.035 C 927.164 146.348, 926.155 145.589, 919.500 142.520 C 909.795 138.045, 901.462 133.123, 893.617 127.232 C 887.452 122.603, 886.050 122.699, 886.015 127.750 C 886.002 129.712, 885.479 130, 881.934 130 C 876.495 130, 874.405 128.715, 871.918 123.839 C 867.631 115.435, 868.372 106.835, 874.575 93.013 C 876.906 87.817, 877.897 86.732, 882.321 84.528 C 885.110 83.137, 888.832 82, 890.591 82 C 893.775 82, 893.785 82.017, 892.919 85.750 C 891.746 90.798, 891.775 97.743, 892.971 98.482 C 895.532 100.065, 905 91.861, 905 88.058 C 905 83.607, 916.131 75, 921.887 75 C 928.853 75, 934.448 69.263, 930.382 66.290 C 929.144 65.385, 926.002 64.984, 921.010 65.094 C 909.831 65.341, 896.664 62.744, 892.330 59.438 C 889.467 57.255, 888.614 57, 887.907 58.116 C 887.425 58.877, 887.026 59.950, 887.021 60.500 C 886.999 62.768, 889.304 69.560, 890.361 70.344 C 891.091 70.885, 890.915 71.003, 889.871 70.672 C 888.976 70.388, 886.562 70.535, 884.508 70.998 C 881.267 71.729, 879.353 71.239, 870.036 67.293 L 859.298 62.745 854.975 52.622 C 852.337 46.444, 850.670 41.032, 850.698 38.733 C 850.760 33.724, 858.966 16.724, 862.413 14.465 C 865.519 12.430, 868.553 13.206, 867.465 15.758 C 867.056 16.716, 866.525 19.975, 866.285 23 C 865.893 27.937, 866.144 28.849, 868.738 31.908 L 871.628 35.317 875.205 27.784 C 877.172 23.642, 879.097 18.386, 879.482 16.105 C 880.015 12.952, 880.853 11.611, 882.972 10.514 C 885.875 9.013, 891 3.529, 891 1.923 C 891 0.448, 884.180 0.855, 879.134 2.632 C 874.795 4.160, 874.245 4.152, 870.500 2.495 C 865.624 0.338, 859.364 -0.269, 856 1.090 M 370 155.154 C 362.025 156.782, 353.204 158.556, 350.397 159.096 C 342.690 160.578, 341.602 162.114, 339.595 174.349 C 336.451 193.503, 336.197 193.854, 323.958 195.934 C 316.642 197.177, 299.547 200.922, 284 204.687 C 264.994 209.290, 259.673 215, 274.389 215 L 279.615 215 282.558 222.120 C 284.176 226.036, 285.913 229.298, 286.417 229.370 C 286.921 229.441, 288.001 227.475, 288.817 225 C 290.652 219.431, 291.482 218.839, 296.500 219.527 C 310.828 221.489, 312.879 223.789, 308.245 232.692 C 306.202 236.617, 304.528 238.605, 303.082 238.823 C 301.905 239.001, 297.018 238.326, 292.221 237.323 C 279.759 234.718, 267.284 234.967, 258.728 237.992 C 252.624 240.149, 251.587 240.255, 248.228 239.067 C 246.177 238.341, 242.086 235.779, 239.135 233.374 C 233.289 228.608, 230.628 227.959, 229.046 230.914 C 228.278 232.349, 228.515 233.916, 229.989 237.164 C 233.148 244.125, 232.761 245.489, 227.272 246.745 C 221.890 247.977, 220.493 247.493, 214.838 242.438 C 209.492 237.659, 207.114 236.540, 206.378 238.457 C 206.052 239.306, 206.045 240.675, 206.362 241.500 C 207.636 244.821, 205.966 246.050, 200.422 245.869 C 193.833 245.653, 192 247.007, 192 252.088 C 192 256.449, 196.093 261.962, 201.349 264.680 C 205.741 266.952, 216.393 265.966, 234 261.658 C 241.975 259.707, 252.100 257.813, 256.500 257.449 C 265.848 256.675, 285.360 252.712, 290.603 250.521 C 298.241 247.330, 310.995 250.122, 312.380 255.287 C 313.459 259.312, 313.061 267.040, 311.750 267.522 C 308.974 268.543, 278.585 268.674, 265 267.723 C 246.912 266.457, 244.784 266.559, 239.373 268.953 C 231.994 272.217, 234.481 278, 243.264 278 C 249.970 278, 252.707 279.389, 260.141 286.566 C 263.806 290.105, 267.199 293, 267.680 293 C 268.161 293, 269.496 292.341, 270.646 291.535 C 271.796 290.730, 273.021 290.355, 273.369 290.702 C 274.776 292.110, 273.875 302.258, 271.866 307.628 C 269.835 313.056, 269.818 313.394, 271.503 314.626 C 273.036 315.747, 273.827 315.448, 277.387 312.402 C 279.649 310.467, 282.687 307.117, 284.138 304.958 C 286.622 301.262, 290 289.472, 290 284.500 C 290 279.279, 292.987 279.160, 327.500 283.002 C 339.663 284.356, 352.604 284.192, 356.323 282.638 C 358.116 281.889, 361.469 279.024, 363.774 276.270 C 366.181 273.395, 370.300 270.041, 373.447 268.393 L 378.928 265.524 382.871 269.374 C 390.803 277.119, 401 274.696, 401 265.066 C 401 258.497, 398.373 253.455, 392.900 249.524 C 390.205 247.588, 388 245.607, 388 245.122 C 388 244.637, 390.475 242.372, 393.500 240.088 C 400.245 234.995, 400.577 233.320, 394.750 233.790 L 390.500 234.132 394.160 230.816 C 398.547 226.841, 401.409 222.471, 400.543 221.069 C 400.171 220.468, 398.084 220.301, 395.456 220.661 C 393.005 220.997, 391 220.912, 391 220.472 C 391 220.032, 393.624 216.709, 396.831 213.086 C 403.609 205.430, 406.668 201, 405.177 201 C 404.598 201, 401.284 201.643, 397.812 202.428 C 384.813 205.369, 380.935 205.204, 361 200.862 C 352.694 199.053, 351.161 197.030, 356.545 194.983 C 360.183 193.600, 362.370 189.610, 361.280 186.341 C 360.428 183.785, 360.665 183.473, 365.142 181.242 C 370.213 178.715, 376.432 172.508, 375.463 170.940 C 375.143 170.423, 373.585 170, 372 170 C 370.415 170, 368.858 169.579, 368.540 169.065 C 367.451 167.303, 378.880 160.153, 385.221 158.630 C 388.058 157.948, 390.533 154.671, 389.487 152.979 C 388.618 151.573, 386.228 151.840, 370 155.154 M 431 227.060 C 427.676 228.315, 423.170 235.152, 416.956 248.366 C 410.360 262.391, 408.911 268.822, 411.333 273.320 C 412.300 275.115, 414.870 277.684, 417.045 279.028 C 425.351 284.161, 421.543 285.599, 400.726 285.190 C 392.050 285.020, 384.063 285.163, 382.976 285.508 C 380.422 286.318, 380.390 290.138, 382.924 291.720 C 383.981 292.381, 389.249 293.630, 394.629 294.496 C 413.902 297.597, 426.532 301.203, 432.313 305.254 C 434.017 306.449, 436.691 310.521, 439.099 315.590 C 444.463 326.880, 449.483 330.614, 463.124 333.459 C 480.065 336.994, 486.463 334.938, 494.211 323.472 C 505.386 306.932, 506.319 306.311, 518.465 307.338 C 532.238 308.502, 545.085 314.104, 550.097 321.131 C 553.677 326.150, 553.339 335.638, 549.158 347.500 C 545.571 357.678, 545.239 356.701, 554 361.739 C 560.903 365.709, 563.974 368.983, 564.627 373.070 C 565.410 377.968, 565.723 378.343, 571.500 381.316 C 578.202 384.765, 588.868 387.117, 594.382 386.361 C 600.015 385.589, 607.399 388.927, 614.500 395.456 C 626.679 406.653, 640.071 413.079, 652.701 413.786 C 660.879 414.244, 660.932 414.231, 671.759 409.114 C 688.839 401.041, 698.732 398.884, 721.500 398.269 C 734.109 397.928, 741.341 397.322, 743 396.467 C 750.371 392.668, 754.094 384.094, 750.105 380.105 C 748.278 378.278, 747.245 378.071, 742.645 378.612 C 728.377 380.289, 723.229 369.611, 728.420 349.109 C 729.867 343.394, 730.842 338.509, 730.586 338.253 C 730.330 337.997, 725.461 338.340, 719.766 339.015 C 697.748 341.624, 675.047 335.667, 656.097 322.306 C 647.732 316.408, 629.061 298.186, 624.300 291.275 C 622.302 288.374, 620.630 286.006, 620.584 286.013 C 620.538 286.020, 617.647 286.920, 614.161 288.013 C 597.933 293.100, 579.541 288.353, 569.011 276.359 C 564.784 271.545, 562.438 266.146, 561.036 258 C 559.398 248.489, 559.814 248.882, 553.810 251.171 C 546.108 254.107, 522.129 260.004, 518.016 259.974 C 504.130 259.870, 466.678 245.087, 444.500 230.956 C 437.673 226.606, 434.573 225.711, 431 227.060 M 516.852 323.016 C 513.086 325.006, 508.197 330.176, 503.309 337.338 C 481.887 368.732, 473.048 377.550, 456.500 384.041 C 451.326 386.070, 448.711 386.401, 437.500 386.443 C 430.350 386.470, 421.800 385.930, 418.500 385.244 C 397.677 380.911, 371.715 375.952, 371.417 376.250 C 371.223 376.444, 370.589 380.854, 370.009 386.051 C 369.428 391.248, 368.286 399.048, 367.472 403.384 C 365.370 414.575, 364.441 428, 365.768 428 C 367.412 428, 373.151 420.268, 376.492 413.552 C 378.988 408.535, 379.987 407.445, 382.333 407.176 L 385.162 406.851 384.502 412.676 C 384.139 415.879, 383.390 419.971, 382.838 421.768 C 381.819 425.080, 382.664 440.020, 383.867 439.978 C 385.946 439.905, 389.405 435.537, 392.559 429 C 394.550 424.875, 397.117 420.488, 398.264 419.250 C 402.320 414.873, 402.773 416.066, 402.632 430.750 C 402.525 441.913, 402.845 445.394, 404.333 449.250 C 405.341 451.863, 406.720 454, 407.397 454 C 408.075 454, 410.974 448.712, 413.839 442.250 C 422.900 421.815, 424.124 419.730, 428.500 417.276 C 434.079 414.147, 438.608 414.439, 449.272 418.611 L 458.500 422.222 472 421.541 C 485.158 420.876, 490.302 421.369, 499.242 424.151 L 502.985 425.315 502.349 432.158 C 501.921 436.756, 502.065 439, 502.785 439 C 504.827 439, 510.866 432.380, 511.501 429.446 C 513.199 421.600, 514.568 420.441, 528.085 415.416 C 533.126 413.541, 538.688 411.120, 540.444 410.034 C 544.101 407.775, 549.330 400.929, 548.234 399.836 C 547.830 399.433, 543.675 399.980, 539 401.052 C 511.220 407.421, 512.995 407.153, 505.861 406.046 C 502.152 405.471, 496.896 405, 494.181 405 C 487.978 405, 486.004 403.168, 488.350 399.589 C 491.360 394.995, 504.084 391.927, 525 390.753 L 529.500 390.500 529.500 374.500 L 529.500 358.500 533.250 351.275 C 536.459 345.093, 537 343.111, 537 337.545 C 537 329.710, 534.812 323.691, 531.399 322.136 C 527.669 320.437, 520.966 320.842, 516.852 323.016 M 745 405.593 C 713.483 407.315, 676.228 417.495, 674.274 424.919 C 673.266 428.748, 673.771 430.571, 678.727 440.997 C 690.703 466.188, 695.343 483.959, 695.439 505 C 695.480 514.025, 695.046 519.786, 694.129 522.381 C 688.199 539.170, 661.007 546.384, 637.296 537.460 C 628.695 534.222, 624.540 530.803, 621.395 524.375 C 619.062 519.607, 618.798 518.073, 619.214 511.724 C 620.219 496.390, 629.223 486.170, 652.500 473.940 C 667.628 465.992, 669.726 463.316, 664.250 458.955 C 661.667 456.897, 660.771 456.797, 649.500 457.299 C 628.659 458.228, 607.831 465.667, 593.048 477.461 C 582.173 486.139, 573.246 500.108, 569.380 514.500 C 566.741 524.326, 566.754 548.518, 569.404 558.500 C 576.197 584.089, 595.818 603.876, 624.278 613.842 C 637.737 618.555, 644.702 619.508, 665 619.414 C 681.868 619.336, 684.380 619.089, 693.480 616.608 C 713.532 611.141, 729.798 601.973, 743.473 588.430 C 759.971 572.092, 769.186 554.335, 774.650 528.350 C 776.995 517.201, 777.346 513.250, 777.306 498.500 C 777.267 484.031, 776.859 479.575, 774.568 468.566 C 773.087 461.453, 772.133 454.607, 772.448 453.352 C 773.338 449.806, 778.833 448.939, 800.775 448.885 C 817.895 448.842, 822.626 449.195, 835.546 451.476 C 855.003 454.912, 864.507 457.343, 875.352 461.659 C 887.204 466.377, 893.767 470.380, 904.471 479.422 C 913.977 487.452, 917.219 488.626, 920.345 485.171 C 925.605 479.359, 917.232 458.332, 904.500 445.378 C 892.821 433.496, 877.958 425.205, 854.326 417.388 C 828.345 408.796, 810.229 406.065, 776 405.583 C 762.525 405.393, 748.575 405.397, 745 405.593 M 941.530 453.132 C 939.341 457.858, 939.196 459.141, 939.699 469.382 C 940.154 478.648, 940.743 481.716, 943.237 487.802 C 944.883 491.818, 945.978 495.356, 945.669 495.664 C 945.361 495.972, 942.272 495.732, 938.805 495.130 C 914.112 490.844, 886.543 494.252, 866.128 504.115 C 855.638 509.183, 843.940 520.200, 839.650 529.051 C 832.456 543.896, 835.004 559.606, 846.620 572.025 C 852.403 578.207, 859.257 581.183, 869.085 581.778 C 886.963 582.861, 902.845 572.710, 913.120 553.632 C 917.430 545.629, 917.500 545.346, 917.500 535.833 C 917.500 530.517, 917.161 525.827, 916.746 525.413 C 915.180 523.847, 910.563 529.835, 906.287 538.977 C 900.841 550.622, 892.486 561.018, 884.500 566.088 C 878.629 569.815, 868.512 567.412, 865.896 561.670 C 863.401 556.195, 876.433 536.614, 887.759 528.822 C 901.178 519.589, 919.143 514.462, 935.556 515.179 C 940.708 515.405, 945.221 515.887, 945.585 516.252 C 945.950 516.617, 944.715 519.072, 942.840 521.708 C 932.064 536.859, 928.880 548.693, 932.119 561.557 C 933.401 566.648, 934.126 566.983, 936.389 563.530 C 940.942 556.581, 954.113 542.225, 962.031 535.582 C 977.146 522.900, 988.542 516.002, 1007.402 508.117 C 1011.227 506.519, 1010.015 505.618, 1001.198 503.507 C 993.329 501.623, 980.560 495.858, 973.501 491.001 C 968.112 487.293, 960.817 479.939, 956.808 474.175 C 952.930 468.598, 947.438 456.558, 946.579 451.750 C 946.211 449.688, 945.459 448, 944.909 448 C 944.358 448, 942.838 450.309, 941.530 453.132 M 1117.890 657.470 C 1102.159 663.260, 1086.533 682.262, 1085.088 697.360 L 1084.500 703.500 1078 704 L 1071.500 704.500 1071.195 708.703 L 1070.890 712.906 1077.695 713.203 L 1084.500 713.500 1084.781 740.500 C 1084.935 755.350, 1084.830 768.448, 1084.548 769.606 C 1084.206 771.006, 1081.999 772.625, 1077.960 774.438 C 1073.594 776.397, 1071.975 777.633, 1072.206 778.832 C 1072.493 780.328, 1075.129 780.527, 1097.835 780.767 C 1123.029 781.033, 1123.142 781.025, 1122.822 778.941 C 1122.588 777.422, 1120.714 776.104, 1116 774.142 L 1109.500 771.437 1109.500 742.469 L 1109.500 713.500 1127.693 713.228 L 1145.885 712.955 1146.193 741.228 C 1146.553 774.362, 1146.570 774.425, 1156.340 779.422 C 1161.227 781.921, 1163.213 782.353, 1169.787 782.343 C 1181.993 782.325, 1195 776.083, 1195 770.242 C 1195 768.486, 1194.370 768.367, 1187.242 768.780 C 1177.039 769.370, 1172.382 767.607, 1171.518 762.826 C 1171.187 760.997, 1171.048 749.150, 1171.208 736.500 L 1171.500 713.500 1183.306 713.218 L 1195.112 712.936 1194.806 708.718 L 1194.500 704.500 1182.788 704.219 L 1171.077 703.937 1170.788 695.219 C 1170.391 683.202, 1169.241 683.180, 1157.521 694.969 L 1148.542 704 1128.771 704 L 1109 704 1109.016 694.750 C 1109.035 683.379, 1111.040 674.196, 1114.032 671.773 C 1116.924 669.431, 1122.669 669.515, 1129.740 672 C 1132.870 673.100, 1135.896 674, 1136.465 673.999 C 1138.099 673.997, 1143.169 664.207, 1142.817 661.733 C 1142.317 658.212, 1136.701 655.991, 1128.500 656.072 C 1124.650 656.110, 1119.875 656.739, 1117.890 657.470 M 1031.877 662.608 C 1026.929 664.663, 1024.544 669.263, 1025.237 675.413 C 1025.871 681.033, 1028.818 684.605, 1033.966 685.991 C 1041.221 687.944, 1048.811 683.912, 1050.880 677.005 C 1051.982 673.327, 1051.888 672.399, 1050.015 668.530 C 1046.658 661.596, 1039.746 659.339, 1031.877 662.608 M 96.500 670 C 95.433 671.726, 96.892 672.889, 104.567 676.435 L 112.020 679.879 111.760 725.172 L 111.500 770.464 104 773.695 C 98.671 775.991, 96.500 777.444, 96.500 778.713 C 96.500 780.387, 98.569 780.517, 129.283 780.764 C 166.669 781.064, 174.318 780.148, 188.286 773.694 C 210.807 763.289, 222.957 744.990, 222.988 721.432 C 223.006 707.659, 219.857 698.643, 211.861 689.572 C 203.449 680.029, 190.055 673.360, 173.619 670.529 C 163.070 668.713, 97.573 668.263, 96.500 670 M 804.500 670 C 803.427 671.736, 804.975 672.997, 812.085 676.176 L 819 679.268 819 724.960 L 819 770.652 811.750 774.076 C 798.900 780.145, 800.078 780.463, 836.475 780.764 C 871.762 781.056, 880.887 780.175, 892.301 775.376 C 918.324 764.433, 932.556 740.796, 929.038 714.362 C 927.613 703.655, 924.474 696.492, 918.318 689.902 C 908.554 679.449, 896.584 673.333, 880.352 670.502 C 870.081 668.711, 805.561 668.284, 804.500 670 M 138.240 724.750 L 138.500 770.500 151 770.484 C 169.865 770.459, 179.195 766.450, 186.764 755.116 C 192.770 746.122, 194.442 739.748, 194.405 726 C 194.367 712.300, 192.662 705.717, 186.926 697.127 C 178.696 684.803, 165.791 679.058, 146.240 679.017 L 137.980 679 138.240 724.750 M 846 724.989 L 846 771.256 859.908 770.813 C 873.347 770.384, 874.047 770.253, 880.658 766.934 C 894.429 760.021, 901.218 746.344, 901.224 725.500 C 901.227 716.235, 900.821 713.347, 898.651 707.185 C 892.096 688.570, 879.812 680.279, 857.250 679.239 L 846 678.721 846 724.989 M 259.249 703.962 C 248.262 707.916, 238 716.887, 238 722.537 C 238 723.770, 238.787 725.750, 239.750 726.939 C 241.308 728.862, 242.322 729.066, 249 728.799 L 256.500 728.500 257 721.852 C 257.654 713.156, 259.483 711, 266.205 711 C 275.970 711, 280.069 715.402, 280.792 726.664 L 281.256 733.898 278.378 734.582 C 249.692 741.408, 241.602 745.067, 237.449 753.099 C 235.270 757.313, 235.544 768.741, 237.919 772.634 C 245.477 785.030, 262.841 785.881, 277.921 774.595 L 281.342 772.034 283.132 774.977 C 284.116 776.595, 286.852 778.923, 289.211 780.151 C 297.854 784.647, 314.255 782.120, 318.502 775.638 C 320.788 772.148, 319.714 771, 314.163 771 C 311.511 771, 308.472 770.318, 307.223 769.443 C 305.026 767.905, 305 767.593, 304.998 742.693 C 304.997 714.506, 304.619 712.623, 298.087 708.260 C 288.946 702.153, 270.078 700.065, 259.249 703.962 M 340 706.936 C 328.874 710.604, 325.500 712.113, 325.500 713.421 C 325.500 714.361, 327.965 716.822, 331 718.911 L 336.500 722.697 336.761 765.843 L 337.021 808.989 330.261 812.245 C 326.365 814.121, 323.500 816.136, 323.500 817 C 323.500 818.289, 327.210 818.538, 349.822 818.767 C 376.041 819.032, 376.142 819.025, 375.822 816.940 C 375.588 815.422, 373.714 814.105, 369 812.145 L 362.500 809.443 362 794.803 C 361.669 785.110, 361.838 780.436, 362.500 780.971 C 364.734 782.774, 377.485 783.145, 384.776 781.619 C 407.409 776.883, 420.508 757.690, 417.882 733.112 C 416.842 723.381, 412.912 715.005, 406.811 709.520 C 400.349 703.710, 393.941 701.612, 384.504 702.218 C 378.404 702.609, 376.045 703.341, 369.498 706.873 C 365.225 709.177, 361.625 710.936, 361.497 710.781 C 361.370 710.627, 360.853 708.700, 360.350 706.500 C 359.112 701.083, 357.662 701.114, 340 706.936 M 443.610 706.486 C 435.970 708.887, 429.071 711.501, 428.278 712.293 C 427.023 713.548, 427.591 714.307, 432.668 718.167 L 438.500 722.599 438.761 765.489 C 438.931 793.463, 438.670 808.730, 438.009 809.391 C 437.452 809.948, 434.634 811.351, 431.748 812.509 C 427.936 814.038, 426.413 815.214, 426.180 816.807 L 425.861 819 452 819 L 478.139 819 477.820 816.844 C 477.585 815.262, 476.034 814.129, 472 812.594 C 463.514 809.363, 464 810.427, 464 795.092 L 464 781.303 469.750 782.229 C 486.752 784.966, 505.250 777.465, 513.569 764.459 C 520.366 753.835, 521.982 734.425, 517.118 721.853 C 509.508 702.183, 486.992 696.015, 468.531 708.544 C 466.540 709.895, 464.568 711, 464.148 711 C 463.728 711, 462.960 709.087, 462.442 706.750 C 461.743 703.597, 460.984 702.451, 459.500 702.310 C 458.400 702.205, 451.249 704.085, 443.610 706.486 M 562 703.534 C 545.354 708.694, 533.679 723.940, 532.293 742.331 C 531.333 755.060, 535.245 765.472, 543.939 773.326 C 554.758 783.100, 573.908 785.617, 587.640 779.070 C 596.868 774.670, 606.306 763.847, 604.659 759.554 C 604.176 758.295, 603.369 758.398, 599.295 760.240 C 595.339 762.029, 592.576 762.416, 583.500 762.454 C 573.206 762.497, 572.194 762.320, 567.728 759.695 C 561.625 756.108, 557.846 750.452, 557.224 743.975 C 556.805 739.624, 556.981 738.990, 558.623 738.924 C 559.655 738.882, 570.157 738.643, 581.959 738.394 C 597.306 738.070, 603.649 737.593, 604.228 736.720 C 605.385 734.976, 604.107 726.424, 601.738 720.059 C 599.101 712.973, 592.121 705.911, 585.537 703.667 C 579.619 701.651, 568.282 701.587, 562 703.534 M 629.500 706.907 C 612.782 712.580, 612.118 713.494, 620.511 719.292 L 626 723.085 626 747.406 L 626 771.727 619.942 774.445 C 615.590 776.399, 613.975 777.633, 614.206 778.832 C 614.493 780.326, 617.071 780.528, 638.945 780.768 C 653.864 780.932, 663.743 780.657, 664.339 780.061 C 665.933 778.467, 663.439 776.408, 656.993 773.997 C 649.537 771.209, 649.658 771.768, 650.701 745.037 L 651.500 724.574 654.898 722.287 C 659.015 719.516, 665.499 719.269, 672.401 721.621 C 675.045 722.522, 677.495 722.855, 677.916 722.371 C 679.492 720.558, 683 711.023, 683 708.550 C 683 704.808, 677.953 702.009, 671.200 702.004 C 664.429 701.999, 661.387 703.623, 655.229 710.533 L 650.246 716.123 649.531 710.405 C 648.589 702.863, 648.179 701.986, 645.643 702.079 C 644.464 702.122, 637.200 704.295, 629.500 706.907 M 704.275 706.830 C 696.451 709.398, 689.538 712.023, 688.912 712.663 C 688.054 713.540, 689.281 714.997, 693.887 718.574 L 700 723.321 700 747.524 L 700 771.727 693.942 774.445 C 689.590 776.399, 687.975 777.633, 688.206 778.832 C 688.493 780.326, 691.071 780.528, 712.945 780.768 C 726.375 780.916, 737.747 780.653, 738.215 780.185 C 739.931 778.469, 737.808 776.440, 731.728 773.988 L 725.500 771.476 725.274 748.488 L 725.047 725.500 728.685 722.750 C 733.010 719.480, 738.155 719.155, 745.922 721.664 C 749.148 722.706, 751.425 722.975, 752.016 722.384 C 754.113 720.287, 757.764 709.535, 757.056 707.543 C 756.081 704.796, 750.366 702.003, 745.718 702.002 C 739.805 701.999, 735.880 704.213, 729.709 711.032 L 724 717.341 723.900 712.420 C 723.759 705.460, 722.760 702.530, 720.459 702.330 C 719.382 702.236, 712.099 704.261, 704.275 706.830 M 956.001 706.919 C 946.068 710.147, 941.405 712.134, 941.195 713.228 C 940.926 714.624, 942.521 716.029, 951.270 722.101 C 952.323 722.832, 953.427 763.910, 952.523 768.731 C 951.964 771.707, 951.143 772.503, 946.385 774.681 C 942.526 776.448, 940.986 777.688, 941.209 778.848 C 941.492 780.321, 944.168 780.529, 965.945 780.768 C 980.864 780.932, 990.743 780.657, 991.339 780.061 C 992.933 778.467, 990.462 776.437, 984.112 774.121 L 978.256 771.986 977.587 766.943 C 976.617 759.631, 978.035 725.793, 979.383 724.087 C 979.997 723.311, 982.356 721.852, 984.624 720.846 C 988.645 719.064, 988.945 719.068, 996.534 721.009 C 1000.816 722.104, 1004.411 723, 1004.523 723 C 1005.195 723, 1010 710.890, 1010 709.196 C 1010 703.277, 998.895 699.928, 990.668 703.365 C 988.870 704.116, 985.118 707.291, 982.328 710.421 C 976.811 716.612, 976 716.430, 976 709 C 976 703.719, 975.154 701.982, 972.643 702.104 C 971.464 702.161, 963.976 704.328, 956.001 706.919 M 1030.750 706.736 C 1018.953 710.175, 1015.001 711.725, 1015.005 712.913 C 1015.008 713.786, 1017.481 716.075, 1020.500 718 L 1025.990 721.500 1025.995 746.805 L 1026 772.111 1020.500 774.629 C 1016.582 776.422, 1015 777.706, 1015 779.091 C 1015 780.971, 1015.800 781.027, 1038.750 780.768 C 1060.414 780.524, 1062.500 780.349, 1062.500 778.785 C 1062.500 777.710, 1060.446 776.030, 1057 774.285 L 1051.500 771.500 1051 737 C 1050.513 703.409, 1050.447 702.495, 1048.500 702.322 C 1047.400 702.225, 1039.412 704.211, 1030.750 706.736 M 565.387 711.850 C 561.877 714.053, 558.294 720.752, 557.818 726 L 557.500 729.500 567.500 729.802 C 581.192 730.215, 584 729.622, 584 726.321 C 584 714.567, 573.750 706.598, 565.387 711.850 M 370.500 716.771 C 369.400 716.969, 367.038 717.586, 365.250 718.143 L 362 719.155 362 744.134 L 362 769.112 366.643 771.166 C 373.462 774.183, 381.889 773.433, 386.083 769.436 C 390.100 765.608, 391.543 761.993, 392.796 752.615 C 394.735 738.100, 391.273 725.178, 384.068 720.049 C 381.008 717.870, 373.919 716.157, 370.500 716.771 M 468.750 717.577 L 464 719.061 464 744.079 L 464 769.098 468.250 771.027 C 477.011 775.004, 486.701 772.829, 490.885 765.948 C 495.905 757.694, 496.398 737.640, 491.823 727.823 C 487.409 718.352, 478.682 714.476, 468.750 717.577 M 273.417 743.938 C 265.658 746.091, 261.450 749.107, 259.977 753.570 C 256.996 762.601, 264.145 769.509, 274.468 767.572 C 280.366 766.465, 281 765.099, 281 753.488 C 281 747.784, 280.663 742.923, 280.250 742.684 C 279.837 742.445, 276.763 743.009, 273.417 743.938" stroke="none" fill="#040404" fill-rule="evenodd"/></svg>